SplineFontDB: 3.0
FontName: Monda-Italic
FullName: Monda Italic
FamilyName: Monda
Weight: Regular
Copyright: Digitized data Copyright (c) 2011-2013, vernon adams.
Version: 2.0
ItalicAngle: -10
UnderlinePosition: 0
UnderlineWidth: 0
Ascent: 1638
Descent: 410
UFOAscent: 2030
UFODescent: -675
LayerCount: 2
Layer: 0 0 "Back"  1
Layer: 1 0 "Fore"  0
FSType: 0
OS2Version: 0
OS2_WeightWidthSlopeOnly: 0
OS2_UseTypoMetrics: 1
CreationTime: 1392007098
ModificationTime: 1392007532
PfmFamily: 17
TTFWeight: 400
TTFWidth: 5
LineGap: 0
VLineGap: 0
OS2TypoAscent: 1999
OS2TypoAOffset: 0
OS2TypoDescent: -572
OS2TypoDOffset: 0
OS2TypoLinegap: 0
OS2WinAscent: 1999
OS2WinAOffset: 0
OS2WinDescent: 572
OS2WinDOffset: 0
HheadAscent: 1999
HheadAOffset: 0
HheadDescent: -572
HheadDOffset: 0
OS2Vendor: 'NeWT'
Lookup: 4 0 1 "ligaStandardLigatureslookup0"  {"ligaStandardLigatureslookup0 subtable"  } ['liga' ('latn' <'dflt' > 'grek' <'dflt' > 'DFLT' <'dflt' > ) ]
Lookup: 6 0 0 "loclLocalizedFormsinLatinlookup"  {"loclLocalizedFormsinLatinlookup contextual 0"  "loclLocalizedFormsinLatinlookup contextual 1"  } ['locl' ('latn' <'dflt' 'CAT ' > ) ]
Lookup: 4 0 0 "Ligature Substitution lookup 2"  {"Ligature Substitution lookup 2 subtable"  } []
Lookup: 4 0 0 "Ligature Substitution lookup 3"  {"Ligature Substitution lookup 3 subtable"  } []
Lookup: 1 0 0 "sub_single_locllatn_0"  {"sub_single_locllatn_0 subtable"  } ['locl' ('latn' <'dflt' 'ROM ' > ) ]
Lookup: 1 0 0 "sub_single_locllatn_2"  {"sub_single_locllatn_2 subtable"  } ['locl' ('latn' <'dflt' 'MOL ' > ) ]
Lookup: 1 0 0 "supsSuperscriptlookup11"  {"supsSuperscriptlookup11 subtable" ("superior" ) } ['sups' ('latn' <'dflt' > 'grek' <'dflt' > 'DFLT' <'dflt' > ) ]
Lookup: 4 0 0 "fracDiagonalFractionslookup12"  {"fracDiagonalFractionslookup12 subtable"  } ['frac' ('latn' <'dflt' > 'grek' <'dflt' > 'DFLT' <'dflt' > ) ]

StartChar: A
Encoding: 65 65 1
Width: 1428
VWidth: 0
Flags: HW
PickledData: "(dp1
S'org.robofab.postScriptHintData'
p2
(dp3
s."
AnchorPoint: "top" 843 1446 basechar 0
AnchorPoint: "ogonek" 1158 0 basechar 0
LayerCount: 2
Fore
SplineSet
-41 0 m 257
 168 0 l 257
 316 282 l 257
 961 282 l 257
 1010 0 l 257
 1215 0 l 257
 929 1446 l 257
 752 1446 l 257
 -41 0 l 257
389 425 m 257
 806 1216 l 257
 940 425 l 257
 389 425 l 257
EndSplineSet
Substitution2: "Single Substitution lookup 9 subtable" ordfeminine
EndChar

StartChar: AE
Encoding: 198 198 2
Width: 1686
VWidth: 0
Flags: HW
PickledData: "(dp1
S'org.robofab.postScriptHintData'
p2
(dp3
s."
AnchorPoint: "top" 1144 1446 basechar 0
LayerCount: 2
Fore
SplineSet
-29 3 m 257
 175 0 l 257
 297 282 l 257
 796 282 l 257
 747 0 l 257
 1432 0 l 257
 1458 150 l 257
 964 150 l 257
 1055 664 l 257
 1479 664 l 257
 1505 814 l 257
 1081 814 l 257
 1166 1296 l 257
 1651 1296 l 257
 1677 1446 l 257
 619 1446 l 257
 -29 3 l 257
357 417 m 257
 733 1296 l 257
 975 1296 l 257
 820 417 l 257
 357 417 l 257
EndSplineSet
EndChar

StartChar: B
Encoding: 66 66 19
Width: 1420
VWidth: 0
Flags: HW
PickledData: "(dp1
S'org.robofab.postScriptHintData'
p2
(dp3
s."
AnchorPoint: "top" 823 1446 basechar 0
LayerCount: 2
Fore
SplineSet
91 0 m 257
 659 0 l 258
 1011 0 1186 124 1237 411 c 256
 1243 443 1245 474 1245 503 c 0
 1245 641 1183 742 1049 773 c 257
 1191 819 1254 922 1279 1049 c 256
 1287 1096 1292 1138 1292 1177 c 0
 1292 1349 1196 1446 869 1446 c 258
 345 1446 l 257
 91 0 l 257
319 149 m 257
 415 696 l 257
 815 696 l 258
 997 696 1049 607 1049 502 c 0
 1049 479 1047 456 1043 433 c 256
 1001 197 894 149 670 149 c 258
 319 149 l 257
439 833 m 257
 521 1295 l 257
 812 1295 l 258
 1013 1295 1088 1268 1088 1143 c 0
 1088 1116 1085 1084 1078 1047 c 256
 1055 917 992 833 810 833 c 258
 439 833 l 257
EndSplineSet
EndChar

StartChar: C
Encoding: 67 67 21
Width: 1456
VWidth: 0
Flags: HW
PickledData: "(dp1
S'org.robofab.postScriptHintData'
p2
(dp3
s."
AnchorPoint: "top" 892 1446 basechar 0
AnchorPoint: "bot" 638 0 basechar 0
LayerCount: 2
Fore
SplineSet
630 -22 m 256
 1099 -22 1193 151 1252 448 c 257
 1061 448 l 257
 1056 424 l 257
 1006 165 913 140 662 140 c 256
 443 140 327 183 327 357 c 0
 327 386 331 418 337 455 c 258
 429 977 l 258
 474 1234 608 1306 862 1306 c 256
 1078 1306 1169 1280 1169 1117 c 0
 1169 1086 1165 1049 1159 1007 c 257
 1154 980 l 257
 1348 997 l 257
 1360 1047 1364 1107 1364 1152 c 0
 1364 1359 1252 1468 890 1468 c 256
 405 1468 274 1246 220 940 c 258
 140 486 l 258
 130 430 124 377 124 328 c 0
 124 115 237 -22 630 -22 c 256
EndSplineSet
EndChar

StartChar: D
Encoding: 68 68 28
Width: 1522
VWidth: 0
Flags: HW
PickledData: "(dp1
S'org.robofab.postScriptHintData'
p2
(dp3
s."
AnchorPoint: "top" 843 1446 basechar 0
AnchorPoint: "mid" 364 762 basechar 0
LayerCount: 2
Fore
SplineSet
319 150 m 257
 521 1295 l 257
 875 1295 l 258
 1055 1295 1192 1252 1192 1062 c 0
 1192 1035 1189 1005 1183 971 c 258
 1093 462 l 258
 1046 196 881 150 673 150 c 258
 319 150 l 257
91 0 m 257
 667 0 l 258
 1034 0 1242 169 1298 482 c 258
 1382 959 l 258
 1389 999 1393 1037 1393 1073 c 0
 1393 1291 1263 1446 919 1446 c 258
 345 1446 l 257
 91 0 l 257
EndSplineSet
EndChar

StartChar: Delta
Encoding: 916 916 34
Width: 1428
VWidth: 0
Flags: HW
PickledData: "(dp1
S'org.robofab.postScriptHintData'
p2
(dp3
s."
LayerCount: 2
Fore
SplineSet
34 0 m 257
 1133 0 l 257
 929 1446 l 257
 752 1446 l 257
 34 0 l 257
290 143 m 257
 802 1196 l 257
 934 143 l 257
 290 143 l 257
EndSplineSet
EndChar

StartChar: E
Encoding: 69 69 37
Width: 1255
VWidth: 0
Flags: HW
PickledData: "(dp1
S'org.robofab.postScriptHintData'
p2
(dp3
s."
AnchorPoint: "top" 803 1446 basechar 0
AnchorPoint: "ogonek" 717 0 basechar 0
AnchorPoint: "bot" 501 0 basechar 0
LayerCount: 2
Fore
SplineSet
91 0 m 257
 1006 0 l 257
 1032 150 l 257
 318 150 l 257
 410 670 l 257
 1030 670 l 257
 1056 820 l 257
 436 820 l 257
 520 1296 l 257
 1222 1296 l 257
 1248 1446 l 257
 345 1446 l 257
 91 0 l 257
EndSplineSet
EndChar

StartChar: Eng
Encoding: 330 330 48
Width: 1582
VWidth: 0
Flags: HW
PickledData: "(dp1
S'org.robofab.postScriptHintData'
p2
(dp3
s."
LayerCount: 2
Fore
SplineSet
661 -373 m 257
 992 -373 1230 -259 1297 122 c 258
 1530 1446 l 257
 1353 1446 l 257
 1181 470 l 257
 525 1446 l 257
 372 1446 l 257
 117 0 l 257
 294 0 l 257
 489 1104 l 257
 1121 190 l 257
 1108 115 l 258
 1053 -197 905 -210 657 -232 c 257
 661 -373 l 257
EndSplineSet
EndChar

StartChar: Euro
Encoding: 8364 8364 52
Width: 1460
VWidth: 0
Flags: HW
PickledData: "(dp1
S'org.robofab.postScriptHintData'
p2
(dp3
s."
LayerCount: 2
Fore
SplineSet
760 819 m 257
 784 953 l 257
 42 953 l 257
 18 819 l 257
 760 819 l 257
705 505 m 257
 728 639 l 257
 -14 639 l 257
 -37 505 l 257
 705 505 l 257
EndSplineSet
Refer: 21 67 N 1 0 0 1 0 0 2
EndChar

StartChar: F
Encoding: 70 70 53
Width: 1159
VWidth: 0
Flags: HW
PickledData: "(dp1
S'org.robofab.postScriptHintData'
p2
(dp3
s."
AnchorPoint: "top" 783 1446 basechar 0
LayerCount: 2
Fore
SplineSet
91 0 m 257
 292 0 l 257
 409 664 l 257
 993 664 l 257
 1019 814 l 257
 435 814 l 257
 520 1296 l 257
 1140 1296 l 257
 1166 1446 l 257
 345 1446 l 257
 91 0 l 257
EndSplineSet
EndChar

StartChar: G
Encoding: 71 71 55
Width: 1556
VWidth: 0
Flags: HW
PickledData: "(dp1
S'org.robofab.postScriptHintData'
p2
(dp3
s."
AnchorPoint: "top" 903 1446 basechar 0
AnchorPoint: "bot" 651 0 basechar 0
LayerCount: 2
Fore
SplineSet
891 1306 m 256
 1125 1306 1221 1281 1221 1121 c 0
 1221 1087 1217 1048 1209 1001 c 257
 1396 1016 l 257
 1400 1043 l 258
 1406 1084 1410 1122 1410 1158 c 0
 1410 1348 1306 1468 919 1468 c 256
 434 1468 278 1246 224 940 c 258
 144 486 l 258
 135 436 130 388 130 343 c 0
 130 121 255 -22 657 -22 c 256
 943 -22 1089 89 1141 246 c 257
 1123 0 l 257
 1233 0 l 257
 1362 735 l 257
 817 735 l 257
 791 588 l 257
 1134 588 l 257
 1111 455 l 258
 1066 199 943 140 685 140 c 256
 462 140 332 184 332 365 c 0
 332 392 335 422 341 455 c 258
 433 977 l 258
 478 1234 637 1306 891 1306 c 256
EndSplineSet
EndChar

StartChar: H
Encoding: 72 72 62
Width: 1528
VWidth: 0
Flags: HW
PickledData: "(dp1
S'org.robofab.postScriptHintData'
p2
(dp3
s."
AnchorPoint: "top" 881 1446 basechar 0
AnchorPoint: "center" 637 0 basechar 0
LayerCount: 2
Fore
SplineSet
85 0 m 257
 286 0 l 257
 402 659 l 257
 1104 659 l 257
 988 0 l 257
 1189 0 l 257
 1443 1446 l 257
 1242 1446 l 257
 1130 807 l 257
 428 807 l 257
 540 1446 l 257
 339 1446 l 257
 85 0 l 257
EndSplineSet
EndChar

StartChar: Hbar
Encoding: 294 294 63
Width: 1536
VWidth: 0
Flags: HW
PickledData: "(dp1
S'org.robofab.postScriptHintData'
p2
(dp3
s."
LayerCount: 2
Fore
SplineSet
203 1060 m 257
 1451 1060 l 257
 1473 1184 l 257
 225 1184 l 257
 203 1060 l 257
EndSplineSet
Refer: 62 72 N 1 0 0 1 0 0 2
EndChar

StartChar: I
Encoding: 73 73 65
Width: 1132
VWidth: 0
Flags: HW
PickledData: "(dp1
S'org.robofab.postScriptHintData'
p2
(dp3
s."
AnchorPoint: "top" 695 1446 basechar 0
AnchorPoint: "ogonek" 514 0 basechar 0
LayerCount: 2
Fore
SplineSet
63 0 m 257
 815 0 l 257
 841 150 l 257
 566 150 l 257
 768 1297 l 257
 1043 1297 l 257
 1069 1446 l 257
 317 1446 l 257
 291 1297 l 257
 567 1297 l 257
 365 150 l 257
 89 150 l 257
 63 0 l 257
EndSplineSet
EndChar

StartChar: J
Encoding: 74 74 79
Width: 1206
VWidth: 0
Flags: HW
PickledData: "(dp1
S'org.robofab.postScriptHintData'
p2
(dp3
s."
AnchorPoint: "top" 774 1446 basechar 0
LayerCount: 2
Fore
SplineSet
393 -17 m 256
 718 -17 890 157 938 431 c 258
 1117 1446 l 257
 363 1446 l 257
 334 1281 l 257
 887 1281 l 257
 738 435 l 258
 705 248 607 148 416 148 c 256
 270 148 114 203 71 225 c 257
 -12 70 l 257
 47 36 225 -17 393 -17 c 256
EndSplineSet
EndChar

StartChar: K
Encoding: 75 75 81
Width: 1418
VWidth: 0
Flags: HW
PickledData: "(dp1
S'org.robofab.postScriptHintData'
p2
(dp3
s."
AnchorPoint: "top" 860 1446 basechar 0
AnchorPoint: "bot" 582 0 basechar 0
LayerCount: 2
Fore
SplineSet
91 0 m 257
 292 0 l 257
 374 468 l 257
 631 690 l 257
 1000 0 l 257
 1223 0 l 257
 791 798 l 257
 1448 1446 l 257
 1230 1446 l 257
 956 1183 677 927 407 657 c 257
 546 1446 l 257
 345 1446 l 257
 91 0 l 257
EndSplineSet
EndChar

StartChar: L
Encoding: 76 76 84
Width: 1145
VWidth: 0
Flags: HW
PickledData: "(dp1
S'org.robofab.postScriptHintData'
p2
(dp3
s."
AnchorPoint: "mid" 307 725 basechar 0
AnchorPoint: "top" 722 1446 basechar 0
AnchorPoint: "bot" 496 0 basechar 0
LayerCount: 2
Fore
SplineSet
91 0 m 257
 941 0 l 257
 968 155 l 257
 319 155 l 257
 546 1446 l 257
 345 1446 l 257
 91 0 l 257
EndSplineSet
EndChar

StartChar: Lslash
Encoding: 321 321 91
Width: 1145
VWidth: 0
Flags: HW
PickledData: "(dp1
S'org.robofab.postScriptHintData'
p2
(dp3
s."
LayerCount: 2
Fore
SplineSet
33 616 m 257
 875 1002 l 257
 897 1126 l 257
 55 740 l 257
 33 616 l 257
EndSplineSet
Refer: 84 76 N 1 0 0 1 0 0 2
EndChar

StartChar: M
Encoding: 77 77 92
Width: 1778
VWidth: 0
Flags: HW
PickledData: "(dp1
S'org.robofab.postScriptHintData'
p2
(dp3
s."
AnchorPoint: "top" 1013 1446 basechar 0
LayerCount: 2
Fore
SplineSet
91 0 m 257
 283 0 l 257
 479 1117 l 257
 769 458 l 257
 918 458 l 257
 1440 1121 l 257
 1243 0 l 257
 1433 0 l 257
 1687 1446 l 257
 1509 1446 l 257
 875 638 l 257
 530 1446 l 257
 345 1446 l 257
 91 0 l 257
EndSplineSet
EndChar

StartChar: N
Encoding: 78 78 94
Width: 1594
VWidth: 0
Flags: HW
PickledData: "(dp1
S'org.robofab.postScriptHintData'
p2
(dp3
s."
AnchorPoint: "top" 924 1446 basechar 0
AnchorPoint: "bot" 670 0 basechar 0
LayerCount: 2
Fore
SplineSet
91 0 m 257
 268 0 l 257
 462 1104 l 257
 1070 0 l 257
 1249 0 l 257
 1503 1446 l 257
 1326 1446 l 257
 1123 290 l 257
 498 1446 l 257
 345 1446 l 257
 91 0 l 257
EndSplineSet
EndChar

StartChar: O
Encoding: 79 79 102
Width: 1546
VWidth: 0
Flags: HW
PickledData: "(dp1
S'org.robofab.postScriptHintData'
p2
(dp3
s."
AnchorPoint: "top" 909 1446 basechar 0
AnchorPoint: "ogonek" 691 0 basechar 0
AnchorPoint: "bot" 655 0 basechar 0
LayerCount: 2
Fore
SplineSet
679 140 m 256
 457 140 332 184 332 363 c 0
 332 390 335 421 341 455 c 258
 433 978 l 258
 478 1235 631 1306 885 1306 c 256
 1103 1306 1214 1254 1214 1080 c 0
 1214 1050 1211 1016 1204 978 c 258
 1112 455 l 258
 1067 199 937 140 679 140 c 256
651 -22 m 256
 1116 -22 1268 203 1321 500 c 258
 1396 928 l 258
 1406 984 1412 1037 1412 1087 c 0
 1412 1312 1295 1468 913 1468 c 256
 428 1468 278 1247 224 941 c 258
 144 486 l 258
 135 434 130 385 130 339 c 0
 130 119 251 -22 651 -22 c 256
EndSplineSet
Substitution2: "Single Substitution lookup 10 subtable" ordmasculine
EndChar

StartChar: OE
Encoding: 338 338 103
Width: 1557
VWidth: 0
Flags: HW
PickledData: "(dp1
S'org.robofab.postScriptHintData'
p2
(dp3
s."
AnchorPoint: "top" 652 0 basechar 0
LayerCount: 2
Fore
SplineSet
648 0 m 258
 1272 0 l 257
 1298 150 l 257
 875 150 l 257
 966 664 l 257
 1319 664 l 257
 1345 814 l 257
 992 814 l 257
 1077 1296 l 257
 1491 1296 l 257
 1517 1446 l 257
 902 1446 l 258
 417 1446 271 1224 217 918 c 258
 145 510 l 258
 136 457 130 408 130 361 c 0
 130 142 250 0 648 0 c 258
664 150 m 258
 450 150 333 206 333 383 c 0
 333 412 336 444 342 479 c 258
 426 955 l 258
 471 1208 618 1295 865 1295 c 258
 876 1295 l 257
 674 150 l 257
 664 150 l 258
EndSplineSet
EndChar

StartChar: Omega
Encoding: 937 937 114
Width: 1586
VWidth: 0
Flags: HW
PickledData: "(dp1
S'org.robofab.postScriptHintData'
p2
(dp3
s."
LayerCount: 2
Fore
SplineSet
922 1468 m 256
 564 1468 298 1372 183 716 c 256
 169 636 162 567 162 507 c 0
 162 302 238 201 347 141 c 257
 102 141 l 257
 78 0 l 257
 568 0 l 257
 592 141 l 257
 433 203 360 294 360 490 c 0
 360 558 369 639 386 736 c 256
 477 1248 634 1304 894 1304 c 256
 1099 1304 1228 1269 1228 1002 c 0
 1228 931 1219 843 1200 736 c 256
 1134 360 1028 225 784 141 c 257
 760 0 l 257
 1250 0 l 257
 1274 141 l 257
 1029 141 l 257
 1198 219 1335 365 1397 716 c 256
 1417 831 1427 929 1427 1012 c 0
 1427 1403 1217 1468 922 1468 c 256
EndSplineSet
EndChar

StartChar: Oslash
Encoding: 216 216 116
Width: 1546
VWidth: 0
Flags: HW
PickledData: "(dp1
S'org.robofab.postScriptHintData'
p2
(dp3
s."
AnchorPoint: "top" 915 1446 basechar 0
LayerCount: 2
Fore
SplineSet
314 -195 m 257
 1316 1638 l 257
 1219 1676 l 257
 218 -157 l 257
 314 -195 l 257
EndSplineSet
Refer: 102 79 N 1 0 0 1 0 0 2
EndChar

StartChar: P
Encoding: 80 80 119
Width: 1326
VWidth: 0
Flags: HW
PickledData: "(dp1
S'org.robofab.postScriptHintData'
p2
(dp3
s."
AnchorPoint: "top" 843 1446 basechar 0
LayerCount: 2
Fore
SplineSet
91 0 m 257
 293 0 l 257
 386 529 l 257
 759 529 l 258
 1005 529 1184 645 1245 991 c 256
 1254 1042 1258 1088 1258 1129 c 0
 1258 1356 1129 1446 923 1446 c 258
 345 1446 l 257
 91 0 l 257
413 682 m 257
 521 1293 l 257
 903 1293 l 258
 1025 1293 1057 1214 1057 1119 c 0
 1057 1073 1049 1023 1041 977 c 256
 1015 828 965 682 790 682 c 258
 413 682 l 257
EndSplineSet
EndChar

StartChar: Q
Encoding: 81 81 121
Width: 1542
VWidth: 0
Flags: HW
PickledData: "(dp1
S'org.robofab.postScriptHintData'
p2
(dp3
s."
LayerCount: 2
Fore
SplineSet
781 -384 m 257
 935 -308 l 257
 796 -17 l 257
 1174 18 1305 229 1353 500 c 258
 1428 928 l 258
 1438 984 1444 1037 1444 1087 c 0
 1444 1312 1327 1468 945 1468 c 256
 460 1468 310 1247 256 941 c 258
 176 486 l 258
 167 434 162 385 162 339 c 0
 162 132 269 -5 615 -21 c 257
 781 -384 l 257
711 140 m 256
 489 140 364 184 364 363 c 0
 364 390 367 421 373 455 c 258
 465 978 l 258
 510 1235 663 1306 917 1306 c 256
 1135 1306 1246 1254 1246 1080 c 0
 1246 1050 1243 1016 1236 978 c 258
 1144 455 l 258
 1099 199 969 140 711 140 c 256
EndSplineSet
EndChar

StartChar: R
Encoding: 82 82 122
Width: 1464
VWidth: 0
Flags: HW
PickledData: "(dp1
S'org.robofab.postScriptHintData'
p2
(dp3
s."
AnchorPoint: "top" 843 1446 basechar 0
AnchorPoint: "bot" 605 0 basechar 0
LayerCount: 2
Fore
SplineSet
91 0 m 257
 293 0 l 257
 398 599 l 257
 398 599 843 600 854 600 c 257
 1036 0 l 257
 1243 0 l 257
 1048 636 l 257
 1178 687 1278 784 1319 1018 c 256
 1327 1066 1331 1108 1331 1147 c 0
 1331 1369 1197 1446 990 1446 c 258
 345 1446 l 257
 91 0 l 257
425 752 m 257
 521 1293 l 257
 970 1293 l 258
 1095 1293 1128 1219 1128 1127 c 0
 1128 1086 1121 1043 1114 1000 c 256
 1089 861 1026 752 851 752 c 258
 425 752 l 257
EndSplineSet
EndChar

StartChar: S
Encoding: 83 83 128
Width: 1304
VWidth: 0
Flags: HW
PickledData: "(dp1
S'org.robofab.postScriptHintData'
p2
(dp3
s."
AnchorPoint: "top" 803 1446 basechar 0
AnchorPoint: "bot" 535 0 basechar 0
LayerCount: 2
Fore
SplineSet
560 -22 m 256
 896 -22 1061 139 1108 406 c 256
 1115 444 1118 479 1118 510 c 0
 1118 657 1043 730 890 784 c 258
 547 907 l 258
 454 940 425 980 425 1040 c 0
 425 1074 434 1107 441 1137 c 256
 471 1260 595 1306 794 1306 c 256
 982 1306 1099 1257 1178 1210 c 257
 1255 1367 l 257
 1172 1425 1034 1468 787 1468 c 256
 510 1468 284 1366 236 1089 c 256
 230 1055 227 1025 227 997 c 0
 227 862 299 791 455 736 c 258
 784 620 l 257
 899 581 932 537 932 477 c 0
 932 464 930 451 928 437 c 256
 891 229 819 140 584 140 c 256
 407 140 233 202 135 267 c 257
 36 113 l 257
 173 25 345 -22 560 -22 c 256
EndSplineSet
EndChar

StartChar: Sigma
Encoding: 931 931 136
Width: 1156
VWidth: 0
Flags: HW
PickledData: "(dp1
S'org.robofab.postScriptHintData'
p2
(dp3
s."
LayerCount: 2
Fore
SplineSet
949 0 m 257
 977 162 l 257
 222 162 l 257
 780 738 l 257
 792 807 l 257
 416 1286 l 257
 1175 1286 l 257
 1203 1446 l 257
 239 1446 l 257
 213 1298 l 257
 604 762 l 257
 12 155 l 257
 -15 0 l 257
 949 0 l 257
EndSplineSet
EndChar

StartChar: T
Encoding: 84 84 137
Width: 1204
VWidth: 0
Flags: HW
PickledData: "(dp1
S'org.robofab.postScriptHintData'
p2
(dp3
s."
AnchorPoint: "center" 475 0 basechar 0
AnchorPoint: "top" 741 1446 basechar 0
AnchorPoint: "mid" 608 753 basechar 0
AnchorPoint: "bot" 475 0 basechar 0
LayerCount: 2
Fore
SplineSet
374 0 m 257
 575 0 l 257
 800 1281 l 257
 1218 1281 l 257
 1247 1446 l 257
 211 1446 l 257
 182 1281 l 257
 599 1281 l 257
 374 0 l 257
EndSplineSet
EndChar

StartChar: Thorn
Encoding: 222 222 142
Width: 1320
VWidth: 0
Flags: HW
PickledData: "(dp1
S'org.robofab.postScriptHintData'
p2
(dp3
s."
LayerCount: 2
Fore
SplineSet
85 0 m 257
 287 0 l 257
 345 331 l 257
 718 331 l 258
 964 331 1140 427 1201 773 c 256
 1210 823 1214 867 1214 907 c 0
 1214 1132 1080 1208 874 1208 c 258
 500 1208 l 257
 541 1446 l 257
 339 1446 l 257
 85 0 l 257
372 484 m 257
 473 1055 l 257
 853 1055 l 258
 978 1055 1010 981 1010 889 c 0
 1010 848 1004 803 996 759 c 256
 970 610 924 484 749 484 c 258
 372 484 l 257
EndSplineSet
EndChar

StartChar: U
Encoding: 85 85 143
Width: 1538
VWidth: 0
Flags: HW
PickledData: "(dp1
S'org.robofab.postScriptHintData'
p2
(dp3
s."
AnchorPoint: "top" 908 1446 basechar 0
AnchorPoint: "ogonek" 715 0 basechar 0
LayerCount: 2
Fore
SplineSet
650 -22 m 256
 1103 -22 1249 205 1296 473 c 258
 1467 1446 l 257
 1265 1446 l 257
 1090 452 l 258
 1043 186 881 140 678 140 c 256
 500 140 348 176 348 369 c 0
 348 394 351 421 356 452 c 258
 531 1446 l 257
 329 1446 l 257
 158 473 l 258
 150 427 145 382 145 339 c 0
 145 132 258 -22 650 -22 c 256
EndSplineSet
EndChar

StartChar: V
Encoding: 86 86 157
Width: 1386
VWidth: 0
Flags: HW
PickledData: "(dp1
S'org.robofab.postScriptHintData'
p2
(dp3
s."
LayerCount: 2
Fore
SplineSet
475 0 m 257
 652 0 l 257
 1427 1446 l 257
 1218 1446 l 257
 616 294 l 257
 420 1446 l 257
 213 1446 l 257
 475 0 l 257
EndSplineSet
EndChar

StartChar: W
Encoding: 87 87 158
Width: 2048
VWidth: 0
Flags: HW
PickledData: "(dp1
S'org.robofab.postScriptHintData'
p2
(dp3
s."
AnchorPoint: "top" 1164 1446 basechar 0
LayerCount: 2
Fore
SplineSet
395 0 m 257
 547 0 l 257
 1127 1232 l 257
 1263 0 l 257
 1415 0 l 257
 2063 1446 l 257
 1880 1446 l 257
 1396 346 l 257
 1260 1446 l 257
 1045 1446 l 257
 537 346 l 257
 423 1446 l 257
 239 1446 l 257
 395 0 l 257
EndSplineSet
EndChar

StartChar: X
Encoding: 88 88 163
Width: 1336
VWidth: 0
Flags: HW
PickledData: "(dp1
S'org.robofab.postScriptHintData'
p2
(dp3
s."
LayerCount: 2
Fore
SplineSet
-33 0 m 257
 179 0 l 257
 640 568 l 257
 897 0 l 257
 1115 0 l 257
 775 734 l 257
 1354 1446 l 257
 1137 1446 l 257
 700 898 l 257
 446 1446 l 257
 243 1446 l 257
 566 731 l 257
 -33 0 l 257
EndSplineSet
EndChar

StartChar: Y
Encoding: 89 89 164
Width: 1318
VWidth: 0
Flags: HW
PickledData: "(dp1
S'org.robofab.postScriptHintData'
p2
(dp3
s."
AnchorPoint: "top" 806 1446 basechar 0
LayerCount: 2
Fore
SplineSet
433 0 m 257
 634 0 l 257
 734 568 l 257
 1397 1446 l 257
 1190 1446 l 257
 665 744 l 257
 388 1446 l 257
 175 1446 l 257
 533 568 l 257
 433 0 l 257
EndSplineSet
EndChar

StartChar: Z
Encoding: 90 90 171
Width: 1242
VWidth: 0
Flags: HW
PickledData: "(dp1
S'org.robofab.postScriptHintData'
p2
(dp3
s."
AnchorPoint: "top" 790 1446 basechar 0
LayerCount: 2
Fore
SplineSet
53 0 m 257
 969 0 l 257
 998 165 l 257
 304 165 l 257
 1184 1295 l 257
 1210 1446 l 257
 338 1446 l 257
 309 1281 l 257
 960 1281 l 257
 79 150 l 257
 53 0 l 257
EndSplineSet
EndChar

StartChar: a
Encoding: 97 97 175
Width: 1172
VWidth: 0
Flags: HW
PickledData: "(dp1
S'org.robofab.postScriptHintData'
p2
(dp3
sS'com.typemytype.robofont.layerData'
p4
(dp5
s."
AnchorPoint: "top" 678 1060 basechar 0
AnchorPoint: "ogonek" 913 10 basechar 0
LayerCount: 2
Fore
SplineSet
98 269 m 256
 93 242 91 216 91 192 c 0
 91 61 165 -22 354 -22 c 256
 549 -22 669 78 729 150 c 257
 744 50 784 -8 925 -8 c 258
 963 -8 l 257
 1011 136 l 257
 942 136 916 148 916 202 c 0
 916 219 918 241 923 268 c 258
 1003 720 l 258
 1009 755 1012 788 1012 819 c 0
 1012 980 924 1080 689 1080 c 256
 411 1080 255 988 218 779 c 257
 210 731 l 257
 391 731 l 257
 399 778 l 258
 414 863 445 936 658 936 c 256
 795 936 830 889 830 825 c 0
 830 810 828 794 825 778 c 256
 812 707 796 682 751 667 c 258
 516 586 l 258
 216 483 123 412 98 269 c 256
415 118 m 256
 309 118 272 145 272 215 c 0
 272 232 274 251 278 273 c 256
 293 361 362 405 531 466 c 258
 786 557 l 257
 740 297 l 257
 693 199 528 118 415 118 c 256
EndSplineSet
Substitution2: "Single Substitution lookup 9 subtable" ordfeminine
EndChar

StartChar: acute
Encoding: 180 180 180
Width: 616
VWidth: 0
Flags: HW
PickledData: "(dp1
S'org.robofab.postScriptHintData'
p2
(dp3
s."
AnchorPoint: "top" 194 1060 mark 0
LayerCount: 2
Fore
SplineSet
170 1204 m 257
 298 1204 l 257
 601 1585 l 257
 376 1585 l 257
 170 1204 l 257
EndSplineSet
EndChar

StartChar: ae
Encoding: 230 230 184
Width: 1741
VWidth: 0
Flags: HW
PickledData: "(dp1
S'org.robofab.postScriptHintData'
p2
(dp3
s."
AnchorPoint: "top" 990 1060 basechar 0
LayerCount: 2
Fore
SplineSet
372 -22 m 256
 609 -22 726 68 796 178 c 257
 820 75 899 -22 1092 -22 c 256
 1382 -22 1499 60 1566 318 c 257
 1396 318 l 257
 1351 135 1283 121 1117 121 c 256
 991 121 929 169 929 271 c 0
 929 288 930 307 934 328 c 258
 966 511 l 257
 1606 511 l 257
 1649 758 l 258
 1653 782 1655 804 1655 826 c 0
 1655 986 1537 1080 1294 1080 c 256
 1149 1080 1039 1037 959 939 c 257
 939 1035 825 1080 687 1080 c 256
 409 1080 253 989 213 759 c 257
 208 731 l 257
 389 731 l 257
 393 758 l 257
 411 857 438 936 651 936 c 256
 800 936 831 884 831 825 c 0
 831 808 828 790 825 773 c 256
 806 667 771 626 537 575 c 256
 201 502 112 423 88 283 c 256
 84 263 83 243 83 224 c 0
 83 87 175 -22 372 -22 c 256
430 120 m 256
 333 120 265 155 265 245 c 0
 265 380 373 403 548 449 c 256
 711 492 784 544 787 564 c 258
 737 279 l 257
 690 181 543 120 430 120 c 256
987 633 m 257
 1010 760 l 258
 1033 891 1118 938 1268 938 c 256
 1398 938 1484 912 1484 814 c 0
 1484 803 1483 791 1481 778 c 258
 1455 633 l 257
 987 633 l 257
EndSplineSet
EndChar

StartChar: ampersand
Encoding: 38 38 190
Width: 1500
VWidth: 0
Flags: HW
PickledData: "(dp1
S'org.robofab.postScriptHintData'
p2
(dp3
s."
LayerCount: 2
Fore
SplineSet
587 -24 m 256
 840 -24 987 28 1077 114 c 257
 1196 -19 l 257
 1320 94 l 257
 1174 261 l 257
 1204 332 1220 413 1236 500 c 258
 1285 778 l 257
 1110 778 l 257
 1053 455 l 258
 1050 439 1047 424 1044 410 c 257
 609 907 l 257
 548 985 520 1030 520 1087 c 0
 520 1099 522 1112 524 1126 c 256
 544 1242 600 1331 810 1331 c 256
 972 1331 1040 1310 1040 1215 c 0
 1040 1200 1038 1183 1035 1164 c 258
 1024 1104 l 257
 1190 1104 l 257
 1208 1205 l 258
 1213 1232 1215 1257 1215 1279 c 0
 1215 1450 1076 1483 822 1483 c 257
 488 1483 369 1323 337 1142 c 256
 332 1116 330 1091 330 1069 c 0
 330 961 381 896 454 816 c 257
 250 759 160 640 125 439 c 256
 118 399 114 358 114 320 c 0
 114 129 218 -24 587 -24 c 256
614 126 m 256
 400 126 319 205 319 351 c 0
 319 380 322 411 328 445 c 256
 349 567 379 680 537 723 c 257
 975 230 l 257
 907 136 800 126 614 126 c 256
EndSplineSet
EndChar

StartChar: approxequal
Encoding: 8776 8776 192
Width: 881
VWidth: 0
Flags: HW
PickledData: "(dp1
S'org.robofab.postScriptHintData'
p2
(dp3
s."
LayerCount: 2
Fore
SplineSet
551 635 m 256
 671 635 782 719 811 884 c 257
 714 884 l 257
 703 822 667 781 586 781 c 256
 515 781 413 898 276 898 c 256
 156 898 45 814 16 649 c 257
 113 649 l 257
 124 711 160 752 241 752 c 256
 312 752 414 635 551 635 c 256
605 941 m 256
 725 941 836 1025 865 1190 c 257
 768 1190 l 257
 757 1128 721 1087 640 1087 c 256
 569 1087 467 1204 330 1204 c 256
 210 1204 99 1120 70 955 c 257
 167 955 l 257
 178 1017 214 1058 295 1058 c 256
 366 1058 468 941 605 941 c 256
EndSplineSet
EndChar

StartChar: asciicircum
Encoding: 94 94 195
Width: 1257
VWidth: 0
Flags: HW
PickledData: "(dp1
S'org.robofab.postScriptHintData'
p2
(dp3
s."
LayerCount: 2
Fore
SplineSet
96 626 m 257
 290 626 l 257
 664 1161 l 257
 852 626 l 257
 1045 626 l 257
 793 1283 l 257
 571 1283 l 257
 96 626 l 257
EndSplineSet
EndChar

StartChar: asciitilde
Encoding: 126 126 196
Width: 881
VWidth: 0
Flags: HW
PickledData: "(dp1
S'org.robofab.postScriptHintData'
p2
(dp3
s."
LayerCount: 2
Fore
SplineSet
575 1173 m 256
 695 1173 811 1287 840 1452 c 257
 743 1452 l 257
 732 1390 691 1319 610 1319 c 256
 539 1319 443 1466 306 1466 c 256
 186 1466 70 1352 41 1187 c 257
 138 1187 l 257
 149 1249 190 1320 271 1320 c 256
 342 1320 438 1173 575 1173 c 256
EndSplineSet
EndChar

StartChar: asterisk
Encoding: 42 42 197
Width: 1024
VWidth: 0
Flags: HW
PickledData: "(dp1
S'org.robofab.postScriptHintData'
p2
(dp3
s."
LayerCount: 2
Fore
SplineSet
348 599 m 257
 526 599 l 257
 553 912 l 257
 766 722 l 257
 888 875 l 257
 633 1017 l 257
 945 1134 l 257
 892 1295 l 257
 588 1121 l 257
 676 1446 l 257
 498 1446 l 257
 470 1133 l 257
 257 1323 l 257
 135 1170 l 257
 390 1028 l 257
 79 911 l 257
 131 750 l 257
 435 924 l 257
 348 599 l 257
EndSplineSet
EndChar

StartChar: at
Encoding: 64 64 198
Width: 2048
VWidth: 0
Flags: HW
PickledData: "(dp1
S'org.robofab.postScriptHintData'
p2
(dp3
s."
LayerCount: 2
Fore
SplineSet
951 -258 m 256
 1174 -258 1412 -207 1535 -158 c 257
 1510 -17 l 257
 1401 -61 1191 -111 976 -111 c 256
 677 -111 489 -12 489 213 c 0
 489 240 492 268 497 298 c 258
 609 936 l 258
 659 1222 856 1331 1189 1331 c 256
 1497 1331 1573 1241 1573 1096 c 0
 1573 1053 1566 1006 1557 955 c 256
 1556 955 1383 915 1245 883 c 256
 842 790 757 689 730 533 c 256
 726 511 724 489 724 468 c 0
 724 315 827 195 1047 195 c 256
 1264 195 1412 296 1479 376 c 257
 1490 294 1504 212 1661 212 c 258
 1701 212 l 257
 1747 360 l 257
 1667 360 1645 377 1645 420 c 0
 1645 436 1648 456 1652 479 c 258
 1739 972 l 258
 1748 1020 1757 1076 1757 1133 c 0
 1757 1303 1671 1483 1215 1483 c 256
 674 1483 472 1236 412 895 c 258
 313 332 l 258
 305 288 301 247 301 206 c 0
 301 -65 483 -258 951 -258 c 256
1105 343 m 256
 996 343 928 389 928 490 c 0
 928 505 930 521 933 539 c 256
 950 636 1005 692 1237 749 c 256
 1396 788 1515 816 1534 825 c 257
 1481 522 l 257
 1429 412 1231 343 1105 343 c 256
EndSplineSet
EndChar

StartChar: b
Encoding: 98 98 200
Width: 1204
VWidth: 0
Flags: HW
PickledData: "(dp1
S'org.robofab.postScriptHintData'
p2
(dp3
s."
AnchorPoint: "top" 720 1060 basechar 0
LayerCount: 2
Fore
SplineSet
491 -22 m 256
 767 -22 950 139 987 352 c 258
 1055 736 l 258
 1059 761 1062 785 1062 808 c 0
 1062 972 948 1080 710 1080 c 256
 611 1080 496 1049 421 1010 c 257
 509 1506 l 257
 321 1506 l 257
 55 0 l 257
 194 0 l 257
 231 71 l 257
 281 36 365 -22 491 -22 c 256
489 126 m 256
 400 126 326 157 276 188 c 257
 397 870 l 257
 472 902 587 936 675 936 c 256
 797 936 873 890 873 791 c 0
 873 778 872 765 869 750 c 258
 796 332 l 258
 773 202 637 126 489 126 c 256
EndSplineSet
EndChar

StartChar: backslash
Encoding: 92 92 201
Width: 768
VWidth: 0
Flags: HW
PickledData: "(dp1
S'org.robofab.postScriptHintData'
p2
(dp3
s."
LayerCount: 2
Fore
SplineSet
388 0 m 257
 571 0 l 257
 384 1506 l 257
 197 1506 l 257
 388 0 l 257
EndSplineSet
EndChar

StartChar: bar
Encoding: 124 124 202
Width: 690
VWidth: 0
Flags: HW
PickledData: "(dp1
S'org.robofab.postScriptHintData'
p2
(dp3
s."
LayerCount: 2
Fore
SplineSet
104 -167 m 257
 282 -167 l 257
 586 1555 l 257
 408 1555 l 257
 104 -167 l 257
EndSplineSet
EndChar

StartChar: braceleft
Encoding: 123 123 204
Width: 952
VWidth: 0
Flags: HW
PickledData: "(dp1
S'org.robofab.postScriptHintData'
p2
(dp3
s."
LayerCount: 2
Fore
SplineSet
716 -207 m 257
 743 -56 l 257
 541 -56 486 -27 486 76 c 0
 486 117 494 169 506 235 c 258
 517 297 l 258
 528 362 535 423 535 476 c 0
 535 563 517 627 475 649 c 257
 555 686 611 830 641 1002 c 258
 652 1064 l 258
 693 1297 709 1355 991 1355 c 257
 1018 1506 l 257
 543 1506 509 1341 457 1046 c 257
 450 1005 l 257
 404 747 351 724 247 724 c 256
 224 724 200 725 172 725 c 257
 146 574 l 257
 174 574 198 575 221 575 c 256
 297 575 342 563 342 454 c 0
 342 415 336 362 324 294 c 258
 317 253 l 258
 303 171 290 99 290 38 c 0
 290 -121 373 -207 716 -207 c 257
EndSplineSet
EndChar

StartChar: braceright
Encoding: 125 125 205
Width: 952
VWidth: 0
Flags: HW
PickledData: "(dp1
S'org.robofab.postScriptHintData'
p2
(dp3
s."
LayerCount: 2
Fore
SplineSet
-23 -207 m 257
 452 -207 486 -42 538 253 c 257
 545 294 l 257
 591 552 644 575 748 575 c 256
 771 575 795 574 823 574 c 257
 849 725 l 257
 821 725 797 724 774 724 c 256
 698 724 653 736 653 845 c 0
 653 884 659 937 671 1005 c 258
 678 1046 l 258
 692 1128 705 1200 705 1261 c 0
 705 1420 622 1506 279 1506 c 257
 252 1355 l 257
 454 1355 509 1326 509 1223 c 0
 509 1182 501 1130 489 1064 c 258
 478 1002 l 258
 467 937 460 876 460 823 c 0
 460 736 478 672 520 649 c 257
 440 613 384 469 354 297 c 258
 343 235 l 258
 302 2 286 -56 4 -56 c 257
 -23 -207 l 257
EndSplineSet
EndChar

StartChar: bracketleft
Encoding: 91 91 206
Width: 768
VWidth: 0
Flags: HW
PickledData: "(dp1
S'org.robofab.postScriptHintData'
p2
(dp3
s."
LayerCount: 2
Fore
SplineSet
114 -76 m 257
 492 -76 l 257
 516 58 l 257
 326 58 l 257
 562 1396 l 257
 752 1396 l 257
 776 1529 l 257
 398 1529 l 257
 114 -76 l 257
EndSplineSet
EndChar

StartChar: bracketright
Encoding: 93 93 207
Width: 768
VWidth: 0
Flags: HW
PickledData: "(dp1
S'org.robofab.postScriptHintData'
p2
(dp3
s."
LayerCount: 2
Fore
SplineSet
53 -76 m 257
 431 -76 l 257
 715 1529 l 257
 337 1529 l 257
 313 1395 l 257
 503 1395 l 257
 267 57 l 257
 77 57 l 257
 53 -76 l 257
EndSplineSet
EndChar

StartChar: breve
Encoding: 728 728 208
Width: 512
VWidth: 0
Flags: HW
PickledData: "(dp1
S'org.robofab.postScriptHintData'
p2
(dp3
s."
AnchorPoint: "top" 207 1060 mark 0
LayerCount: 2
Fore
SplineSet
237 1294 m 256
 376 1294 480 1391 501 1506 c 257
 375 1506 l 257
 364 1446 309 1416 259 1416 c 256
 214 1416 173 1440 173 1488 c 0
 173 1494 174 1500 175 1506 c 257
 49 1506 l 257
 47 1493 45 1479 45 1466 c 0
 45 1369 114 1294 237 1294 c 256
EndSplineSet
EndChar

StartChar: brokenbar
Encoding: 166 166 209
Width: 674
VWidth: 0
Flags: HW
PickledData: "(dp1
S'org.robofab.postScriptHintData'
p2
(dp3
s."
LayerCount: 2
Fore
SplineSet
102 -167 m 257
 280 -167 l 257
 400 513 l 257
 222 513 l 257
 102 -167 l 257
281 848 m 257
 459 848 l 257
 584 1555 l 257
 406 1555 l 257
 281 848 l 257
EndSplineSet
EndChar

StartChar: bullet
Encoding: 8226 8226 210
Width: 975
VWidth: 0
Flags: HW
PickledData: "(dp1
S'org.robofab.postScriptHintData'
p2
(dp3
s."
LayerCount: 2
Fore
SplineSet
433 298 m 256
 660 298 761 405 795 599 c 256
 801 632 804 662 804 690 c 0
 804 828 729 901 540 901 c 256
 315 901 214 795 180 599 c 256
 174 566 171 536 171 508 c 0
 171 371 245 298 433 298 c 256
EndSplineSet
EndChar

StartChar: bulletoperator
Encoding: 8729 8729 211
Width: 792
VWidth: 0
Flags: HW
PickledData: "(dp1
S'org.robofab.postScriptHintData'
p2
(dp3
s."
LayerCount: 2
Fore
SplineSet
628 608 m 0
 628 449 494 325 354 325 c 256
 238 325 164 408 164 518 c 0
 164 677 298 801 438 801 c 256
 554 801 628 718 628 608 c 0
EndSplineSet
EndChar

StartChar: c
Encoding: 99 99 212
Width: 1106
VWidth: 0
Flags: HW
PickledData: "(dp1
S'org.robofab.postScriptHintData'
p2
(dp3
s."
AnchorPoint: "top" 688 1060 basechar 0
AnchorPoint: "bot" 466 0 basechar 0
LayerCount: 2
Fore
SplineSet
482 -22 m 256
 770 -22 887 66 951 310 c 257
 777 310 l 257
 735 150 693 122 507 122 c 256
 374 122 296 163 296 274 c 0
 296 290 298 309 301 328 c 258
 374 743 l 258
 399 884 489 936 651 936 c 256
 793 936 854 913 854 802 c 0
 854 776 851 744 844 707 c 257
 1026 724 l 257
 1033 761 1036 794 1036 824 c 0
 1036 1026 892 1080 671 1080 c 256
 408 1080 222 948 187 748 c 258
 115 344 l 258
 110 318 108 292 108 267 c 0
 108 106 208 -22 482 -22 c 256
EndSplineSet
EndChar

StartChar: caron
Encoding: 711 711 214
Width: 512
VWidth: 0
Flags: HW
PickledData: "(dp1
S'org.robofab.postScriptHintData'
p2
(dp3
s."
AnchorPoint: "top" 193 1060 mark 0
LayerCount: 2
Fore
SplineSet
313 1287 m 257
 565 1553 l 257
 389 1553 l 257
 260 1409 l 257
 173 1553 l 257
 -7 1553 l 257
 163 1287 l 257
 313 1287 l 257
EndSplineSet
EndChar

StartChar: caron.alt
Encoding: 65538 -1 215
Width: 600
VWidth: 0
Flags: HW
PickledData: "(dp1
S'org.robofab.postScriptHintData'
p2
(dp3
s."
AnchorPoint: "caron.alt" 233 1060 mark 0
LayerCount: 2
Fore
SplineSet
653 1222 m 257
 720 1276 859 1419 893 1610 c 258
 925 1793 l 257
 668 1793 l 257
 627 1560 l 257
 768 1560 l 257
 745 1428 636 1321 579 1266 c 257
 653 1222 l 257
EndSplineSet
EndChar

StartChar: cedilla
Encoding: 184 184 220
Width: 512
VWidth: 0
Flags: HW
PickledData: "(dp1
S'org.robofab.postScriptHintData'
p2
(dp3
s."
AnchorPoint: "bot" 248 0 mark 0
LayerCount: 2
Fore
SplineSet
324 -274 m 0
 324 -340 267 -389 165 -389 c 256
 144 -389 121 -387 95 -382 c 257
 79 -478 l 257
 112 -484 142 -486 170 -486 c 256
 335 -486 433 -397 449 -303 c 256
 451 -293 452 -284 452 -274 c 0
 452 -194 392 -117 265 -94 c 257
 276 0 l 257
 214 0 l 257
 186 -158 l 257
 276 -161 324 -218 324 -274 c 0
EndSplineSet
EndChar

StartChar: cent
Encoding: 162 162 221
Width: 1110
VWidth: 0
Flags: HW
PickledData: "(dp1
S'org.robofab.postScriptHintData'
p2
(dp3
s."
LayerCount: 2
Fore
SplineSet
624 1013 m 257
 727 1013 l 257
 774 1277 l 257
 671 1277 l 257
 624 1013 l 257
409 -205 m 257
 512 -205 l 257
 559 59 l 257
 456 59 l 257
 409 -205 l 257
EndSplineSet
Refer: 212 99 N 1 0 0 1 0 0 2
EndChar

StartChar: circumflex
Encoding: 710 710 222
Width: 512
VWidth: 0
Flags: HW
PickledData: "(dp1
S'org.robofab.postScriptHintData'
p2
(dp3
s."
AnchorPoint: "top" 193 1060 mark 0
LayerCount: 2
Fore
SplineSet
-53 1287 m 257
 127 1287 l 257
 264 1431 l 257
 343 1287 l 257
 519 1287 l 257
 359 1553 l 257
 209 1553 l 257
 -53 1287 l 257
EndSplineSet
EndChar

StartChar: comma
Encoding: 44 44 224
Width: 641
VWidth: 0
Flags: HW
PickledData: "(dp1
S'org.robofab.postScriptHintData'
p2
(dp3
s."
LayerCount: 2
Fore
SplineSet
227 -338 m 257
 294 -284 433 -141 467 50 c 258
 499 233 l 257
 242 233 l 257
 201 0 l 257
 342 0 l 257
 319 -132 210 -239 153 -294 c 257
 227 -338 l 257
EndSplineSet
EndChar

StartChar: copyright
Encoding: 169 169 225
Width: 1784
VWidth: 0
Flags: HW
PickledData: "(dp1
S'org.robofab.postScriptHintData'
p2
(dp3
s."
LayerCount: 2
Fore
SplineSet
826 287 m 257
 1102 287 1175 422 1206 598 c 258
 1212 632 l 257
 1096 632 l 257
 1086 571 l 257
 1059 419 995 376 842 376 c 256
 711 376 639 408 639 514 c 0
 639 531 641 550 645 571 c 258
 701 890 l 258
 728 1042 816 1091 967 1091 c 256
 1093 1091 1149 1057 1149 959 c 0
 1149 939 1147 916 1142 890 c 258
 1131 826 l 257
 1248 836 l 257
 1253 861 l 258
 1260 899 1264 935 1264 968 c 0
 1264 1095 1203 1182 983 1182 c 256
 695 1182 609 1050 577 868 c 258
 528 590 l 258
 522 558 519 528 519 500 c 0
 519 371 590 287 826 287 c 257
781 82 m 256
 460 82 254 296 254 597 c 0
 254 637 257 679 265 722 c 256
 329 1086 643 1361 1007 1361 c 256
 1330 1361 1533 1148 1533 848 c 0
 1533 808 1530 765 1522 722 c 256
 1458 357 1147 82 781 82 c 256
762 -14 m 256
 1178 -14 1554 303 1628 722 c 256
 1636 769 1640 815 1640 859 c 0
 1640 1206 1391 1456 1022 1456 c 256
 609 1456 230 1139 156 722 c 256
 148 675 144 629 144 585 c 0
 144 236 395 -14 762 -14 c 256
EndSplineSet
EndChar

StartChar: currency
Encoding: 164 164 226
Width: 1149
VWidth: 0
Flags: HW
PickledData: "(dp1
S'org.robofab.postScriptHintData'
p2
(dp3
s."
LayerCount: 2
Fore
SplineSet
316 862 m 257
 267 798 234 725 234 627 c 0
 234 600 238 574 244 549 c 257
 78 443 l 257
 114 360 l 257
 280 468 l 257
 328 398 406 360 501 360 c 256
 603 360 704 406 776 486 c 257
 921 376 l 257
 987 457 l 257
 836 571 l 257
 865 623 883 676 883 748 c 0
 883 788 876 826 864 860 c 257
 1072 993 l 257
 1036 1075 l 257
 818 935 l 257
 771 990 700 1018 617 1018 c 256
 535 1018 455 991 389 937 c 257
 231 1061 l 257
 162 979 l 257
 316 862 l 257
789 739 m 0
 789 574 656 444 517 444 c 256
 404 444 331 530 331 642 c 0
 331 807 465 936 604 936 c 256
 717 936 789 851 789 739 c 0
EndSplineSet
EndChar

StartChar: d
Encoding: 100 100 227
Width: 1200
VWidth: 0
Flags: HW
PickledData: "(dp1
S'org.robofab.postScriptHintData'
p2
(dp3
s."
AnchorPoint: "caron.alt" 882 1060 basechar 0
AnchorPoint: "top" 640 1060 basechar 0
AnchorPoint: "mid" 1011 1275 basechar 0
LayerCount: 2
Fore
SplineSet
433 -22 m 257
 542 -22 666 22 737 70 c 257
 755 0 l 257
 883 0 l 257
 1149 1506 l 257
 961 1506 l 257
 879 1040 l 257
 817 1064 718 1080 651 1080 c 256
 343 1080 184 948 147 735 c 258
 76 335 l 258
 71 307 68 280 68 254 c 0
 68 92 170 -22 433 -22 c 257
471 126 m 256
 347 126 258 177 258 282 c 0
 258 294 259 307 262 321 c 258
 338 756 l 258
 361 886 479 936 627 936 c 256
 715 936 801 919 852 892 c 257
 728 189 l 257
 681 163 578 126 471 126 c 256
EndSplineSet
EndChar

StartChar: dagger
Encoding: 8224 8224 228
Width: 890
VWidth: 0
Flags: HW
PickledData: "(dp1
S'org.robofab.postScriptHintData'
p2
(dp3
s."
LayerCount: 2
Fore
SplineSet
221 0 m 257
 409 0 l 257
 573 931 l 257
 839 931 l 257
 861 1060 l 257
 595 1060 l 257
 663 1446 l 257
 475 1446 l 257
 407 1060 l 257
 147 1060 l 257
 125 931 l 257
 385 931 l 257
 221 0 l 257
EndSplineSet
EndChar

StartChar: daggerdbl
Encoding: 8225 8225 229
Width: 938
VWidth: 0
Flags: HW
PickledData: "(dp1
S'org.robofab.postScriptHintData'
p2
(dp3
s."
LayerCount: 2
Fore
SplineSet
245 0 m 257
 433 0 l 257
 505 409 l 257
 771 409 l 257
 793 538 l 257
 527 538 l 257
 597 931 l 257
 863 931 l 257
 885 1060 l 257
 619 1060 l 257
 687 1446 l 257
 499 1446 l 257
 431 1060 l 257
 171 1060 l 257
 149 931 l 257
 409 931 l 257
 339 538 l 257
 79 538 l 257
 57 409 l 257
 317 409 l 257
 245 0 l 257
EndSplineSet
EndChar

StartChar: degree
Encoding: 176 176 233
Width: 1036
VWidth: 0
Flags: HW
PickledData: "(dp1
S'org.robofab.postScriptHintData'
p2
(dp3
s."
LayerCount: 2
Fore
SplineSet
751 1168 m 0
 751 1009 617 885 477 885 c 256
 361 885 287 968 287 1078 c 0
 287 1237 421 1361 561 1361 c 256
 677 1361 751 1278 751 1168 c 0
461 798 m 256
 639 798 810 943 842 1122 c 256
 845 1141 847 1159 847 1177 c 0
 847 1329 734 1446 575 1446 c 256
 397 1446 225 1300 194 1122 c 256
 191 1103 189 1083 189 1065 c 0
 189 913 302 798 461 798 c 256
EndSplineSet
EndChar

StartChar: dieresis
Encoding: 168 168 234
Width: 1025
VWidth: 0
Flags: HW
PickledData: "(dp1
S'org.robofab.postScriptHintData'
p2
(dp3
s."
AnchorPoint: "top" 447 1060 mark 0
LayerCount: 2
Fore
SplineSet
142 1343 m 257
 348 1343 l 257
 380 1524 l 257
 174 1524 l 257
 142 1343 l 257
645 1343 m 257
 851 1343 l 257
 883 1524 l 257
 677 1524 l 257
 645 1343 l 257
EndSplineSet
EndChar

StartChar: divide
Encoding: 247 247 235
Width: 1025
VWidth: 0
Flags: HW
PickledData: "(dp1
S'org.robofab.postScriptHintData'
p2
(dp3
s."
LayerCount: 2
Fore
SplineSet
333 90 m 257
 538 90 l 257
 575 299 l 257
 370 299 l 257
 333 90 l 257
87 472 m 257
 912 472 l 257
 937 609 l 257
 112 609 l 257
 87 472 l 257
456 787 m 257
 661 787 l 257
 698 996 l 257
 493 996 l 257
 456 787 l 257
EndSplineSet
EndChar

StartChar: dollar
Encoding: 36 36 237
Width: 1303
VWidth: 0
Flags: HW
PickledData: "(dp1
S'org.robofab.postScriptHintData'
p2
(dp3
s."
LayerCount: 2
Fore
SplineSet
432 -372 m 257
 542 -372 l 257
 918 1758 l 257
 808 1758 l 257
 432 -372 l 257
EndSplineSet
Refer: 128 83 N 1 0 0 1 0 0 2
EndChar

StartChar: dotaccent
Encoding: 729 729 238
Width: 512
VWidth: 0
Flags: HW
PickledData: "(dp1
S'org.robofab.postScriptHintData'
p2
(dp3
s."
AnchorPoint: "top" 191 1060 mark 0
LayerCount: 2
Fore
SplineSet
131 1327 m 257
 324 1327 l 257
 360 1535 l 257
 167 1535 l 257
 131 1327 l 257
EndSplineSet
EndChar

StartChar: dotlessi
Encoding: 305 305 239
Width: 556
VWidth: 0
Flags: HW
PickledData: "(dp1
S'org.robofab.postScriptHintData'
p2
(dp3
s."
AnchorPoint: "top" 388 1060 basechar 0
AnchorPoint: "ogonek" 211 0 basechar 0
LayerCount: 2
Fore
SplineSet
99 0 m 257
 287 0 l 257
 473 1060 l 257
 285 1060 l 257
 99 0 l 257
EndSplineSet
EndChar

StartChar: dotlessj
Encoding: 567 567 240
Width: 595
VWidth: 0
Flags: HW
PickledData: "(dp1
S'org.robofab.postScriptHintData'
p2
(dp3
s."
AnchorPoint: "top" 456 1060 basechar 0
LayerCount: 2
Fore
SplineSet
-98 -353 m 257
 -32 -353 l 258
 174 -353 299 -305 354 7 c 258
 540 1060 l 257
 352 1060 l 257
 164 -4 l 258
 134 -174 73 -197 -60 -197 c 258
 -89 -197 l 257
 -98 -353 l 257
EndSplineSet
EndChar

StartChar: e
Encoding: 101 101 243
Width: 1138
VWidth: 0
Flags: HW
PickledData: "(dp1
S'org.robofab.postScriptHintData'
p2
(dp3
s."
AnchorPoint: "top" 678 1060 basechar 0
AnchorPoint: "ogonek" 604 0 basechar 0
AnchorPoint: "bot" 496 0 basechar 0
LayerCount: 2
Fore
SplineSet
492 -22 m 256
 786 -22 890 32 960 282 c 257
 794 282 l 257
 750 122 694 122 517 122 c 256
 355 122 297 163 297 270 c 0
 297 295 300 324 306 357 c 258
 332 506 l 257
 1002 506 l 257
 1046 758 l 258
 1050 782 1053 805 1053 827 c 0
 1053 986 935 1080 679 1080 c 256
 375 1080 221 943 186 743 c 258
 121 374 l 258
 114 334 110 296 110 262 c 0
 110 72 224 -22 492 -22 c 256
354 633 m 257
 377 760 l 258
 400 891 504 936 654 936 c 256
 785 936 871 912 871 814 c 0
 871 803 870 791 868 778 c 258
 842 633 l 257
 354 633 l 257
EndSplineSet
EndChar

StartChar: eight
Encoding: 56 56 252
Width: 1250
VWidth: 0
Flags: HW
PickledData: "(dp1
S'org.robofab.postScriptHintData'
p2
(dp3
s."
LayerCount: 2
Fore
SplineSet
820 773 m 257
 999 849 1165 941 1165 1183 c 0
 1165 1392 984 1468 757 1468 c 256
 502 1468 275 1375 228 1108 c 256
 224 1086 222 1065 222 1046 c 0
 222 903 325 834 447 773 c 257
 276 703 107 580 69 367 c 256
 64 339 62 312 62 287 c 0
 62 78 228 -22 490 -22 c 257
 790 -22 1009 103 1055 367 c 256
 1060 393 1062 417 1062 440 c 0
 1062 609 947 711 820 773 c 257
523 140 m 256
 354 140 256 186 256 316 c 0
 256 333 258 352 261 372 c 256
 289 529 442 610 619 689 c 257
 753 617 869 545 869 415 c 0
 869 401 868 387 865 372 c 256
 835 199 711 140 523 140 c 256
647 846 m 257
 525 910 420 966 420 1074 c 0
 420 1084 421 1096 423 1107 c 256
 444 1230 528 1306 729 1306 c 256
 902 1306 967 1248 967 1152 c 0
 967 1138 966 1123 963 1107 c 256
 940 977 805 917 647 846 c 257
EndSplineSet
EndChar

StartChar: emdash
Encoding: 8212 8212 256
Width: 1101
VWidth: 0
Flags: HW
PickledData: "(dp1
S'org.robofab.postScriptHintData'
p2
(dp3
s."
LayerCount: 2
Fore
SplineSet
-11 402 m 257
 1085 402 l 257
 1111 548 l 257
 15 548 l 257
 -11 402 l 257
EndSplineSet
EndChar

StartChar: emptyset
Encoding: 8709 8709 257
Width: 1552
VWidth: 0
Flags: HW
PickledData: "(dp1
S'org.robofab.postScriptHintData'
p2
(dp3
s."
LayerCount: 2
Fore
SplineSet
690 167 m 256
 432 167 265 339 265 581 c 0
 265 613 268 647 274 682 c 256
 325 974 578 1196 871 1196 c 256
 1130 1196 1295 1023 1295 782 c 0
 1295 750 1292 716 1286 682 c 256
 1234 388 984 167 690 167 c 256
670 66 m 256
 1018 66 1333 331 1395 682 c 256
 1402 721 1405 758 1405 795 c 0
 1405 1086 1196 1296 887 1296 c 256
 541 1296 224 1031 163 682 c 256
 156 643 153 604 153 567 c 0
 153 275 363 66 670 66 c 256
99 54 m 257
 156 -2 l 257
 1459 1281 l 257
 1402 1337 l 257
 99 54 l 257
EndSplineSet
EndChar

StartChar: endash
Encoding: 8211 8211 258
Width: 539
VWidth: 0
Flags: HW
PickledData: "(dp1
S'org.robofab.postScriptHintData'
p2
(dp3
s."
LayerCount: 2
Fore
SplineSet
-9 606 m 257
 524 606 l 257
 546 732 l 257
 13 732 l 257
 -9 606 l 257
EndSplineSet
EndChar

StartChar: eng
Encoding: 331 331 259
Width: 1226
VWidth: 0
Flags: HW
PickledData: "(dp1
S'org.robofab.postScriptHintData'
p2
(dp3
s."
LayerCount: 2
Fore
SplineSet
518 -316 m 257
 864 -316 954 -162 1021 219 c 258
 1118 770 l 258
 1122 793 1124 815 1124 836 c 0
 1124 973 1037 1080 811 1080 c 256
 657 1080 550 1029 475 957 c 257
 494 1060 l 257
 306 1060 l 257
 119 0 l 257
 307 0 l 257
 440 755 l 258
 458 857 554 936 738 936 c 256
 856 936 935 895 935 810 c 0
 935 801 934 791 932 781 c 258
 832 212 l 258
 777 -100 763 -175 515 -175 c 257
 518 -316 l 257
EndSplineSet
EndChar

StartChar: equal
Encoding: 61 61 261
Width: 1250
VWidth: 0
Flags: HW
PickledData: "(dp1
S'org.robofab.postScriptHintData'
p2
(dp3
s."
LayerCount: 2
Fore
SplineSet
181 467 m 257
 983 467 l 257
 1009 615 l 257
 207 615 l 257
 181 467 l 257
241 805 m 257
 1043 805 l 257
 1069 953 l 257
 267 953 l 257
 241 805 l 257
EndSplineSet
EndChar

StartChar: estimated
Encoding: 8494 8494 262
Width: 1199
VWidth: 0
Flags: HW
PickledData: "(dp1
S'org.robofab.postScriptHintData'
p2
(dp3
s."
LayerCount: 2
Fore
SplineSet
723 1210 m 256
 842 1210 949 1162 998 1065 c 257
 950 790 l 257
 336 790 l 257
 385 1067 l 257
 473 1161 604 1210 723 1210 c 256
95 730 m 256
 87 687 83 645 83 605 c 0
 83 353 237 178 565 178 c 256
 771 178 921 267 1040 385 c 257
 998 436 l 257
 871 321 715 264 575 264 c 256
 447 264 333 312 268 406 c 257
 322 710 l 257
 1106 710 l 257
 1116 767 1121 822 1121 872 c 0
 1121 1121 998 1280 734 1280 c 256
 414 1280 150 1041 95 730 c 256
EndSplineSet
EndChar

StartChar: eth
Encoding: 240 240 263
Width: 1158
VWidth: 0
Flags: HW
PickledData: "(dp1
S'org.robofab.postScriptHintData'
p2
(dp3
s."
LayerCount: 2
Fore
SplineSet
443 -20 m 256
 826 -20 899 170 934 365 c 258
 999 736 l 258
 1014 821 1022 902 1022 976 c 0
 1022 1183 959 1342 804 1427 c 257
 927 1565 l 257
 841 1617 l 257
 714 1470 l 257
 647 1487 582 1492 525 1492 c 256
 452 1492 394 1483 358 1477 c 257
 307 1349 l 257
 342 1352 386 1356 437 1356 c 256
 488 1356 545 1352 602 1341 c 257
 438 1152 l 257
 524 1100 l 257
 701 1304 l 257
 791 1250 851 1156 851 1014 c 0
 851 982 848 948 842 911 c 257
 819 934 724 975 608 975 c 256
 345 975 158 846 123 646 c 258
 65 314 l 258
 61 289 58 265 58 242 c 0
 58 85 167 -20 443 -20 c 256
468 121 m 256
 337 121 247 157 247 265 c 0
 247 278 248 292 251 308 c 258
 311 652 l 258
 334 783 447 833 593 833 c 256
 653 833 781 813 822 783 c 257
 742 329 l 258
 722 213 683 121 468 121 c 256
EndSplineSet
EndChar

StartChar: exclam
Encoding: 33 33 265
Width: 768
VWidth: 0
Flags: HW
PickledData: "(dp1
S'org.robofab.postScriptHintData'
p2
(dp3
s."
LayerCount: 2
Fore
SplineSet
153 0 m 257
 357 0 l 257
 393 206 l 257
 189 206 l 257
 153 0 l 257
291 371 m 257
 347 371 l 257
 347 371 547 1060 615 1446 c 257
 413 1446 l 257
 345 1060 291 371 291 371 c 257
EndSplineSet
EndChar

StartChar: f
Encoding: 102 102 267
Width: 782
VWidth: 0
Flags: HW
PickledData: "(dp1
S'org.robofab.postScriptHintData'
p2
(dp3
s."
AnchorPoint: "top" 510 1446 basechar 0
LayerCount: 2
Fore
SplineSet
146 0 m 257
 334 0 l 257
 496 918 l 257
 753 918 l 257
 778 1060 l 257
 521 1060 l 257
 553 1239 l 258
 566 1315 614 1372 729 1372 c 258
 845 1372 l 257
 857 1505 l 257
 738 1505 l 258
 520 1505 397 1419 362 1221 c 258
 333 1060 l 257
 156 1060 l 257
 131 918 l 257
 308 918 l 257
 146 0 l 257
EndSplineSet
EndChar

StartChar: firsttonechinese
Encoding: 713 713 275
Width: 513
VWidth: 0
Flags: HW
AnchorPoint: "top" 198 1060 mark 0
AnchorPoint: "mid" 257 1394 mark 0
LayerCount: 2
Fore
SplineSet
-21 1321 m 257
 508 1321 l 257
 534 1468 l 257
 5 1468 l 257
 -21 1321 l 257
EndSplineSet
EndChar

StartChar: five
Encoding: 53 53 276
Width: 1250
VWidth: 0
Flags: HW
PickledData: "(dp1
S'org.robofab.postScriptHintData'
p2
(dp3
s."
LayerCount: 2
Fore
SplineSet
889 534 m 0
 889 285 740 140 523 140 c 256
 319 140 238 191 146 260 c 257
 66 107 l 257
 160 46 279 -22 503 -22 c 256
 795 -22 1021 169 1071 449 c 256
 1078 491 1082 531 1082 568 c 0
 1082 782 959 911 704 911 c 256
 603 911 498 877 425 819 c 257
 548 1281 l 257
 1124 1281 l 257
 1153 1446 l 257
 416 1446 l 257
 236 712 l 257
 371 652 l 257
 488 727 555 762 654 762 c 256
 819 762 889 674 889 534 c 0
EndSplineSet
EndChar

StartChar: florin
Encoding: 402 402 279
Width: 890
VWidth: 0
Flags: HW
PickledData: "(dp1
S'org.robofab.postScriptHintData'
p2
(dp3
s."
LayerCount: 2
Fore
SplineSet
105 -190 m 256
 306 -190 391 -98 425 91 c 258
 537 727 l 257
 666 727 l 257
 689 858 l 257
 560 858 l 257
 616 1177 l 258
 631 1263 665 1335 803 1335 c 256
 813 1335 822 1335 833 1334 c 257
 855 1458 l 257
 817 1462 783 1464 752 1464 c 256
 544 1464 463 1372 424 1155 c 258
 372 858 l 257
 255 858 l 257
 232 727 l 257
 349 727 l 257
 232 63 l 258
 218 -18 177 -61 66 -61 c 256
 51 -61 35 -61 18 -59 c 257
 -4 -183 l 257
 36 -188 72 -190 105 -190 c 256
EndSplineSet
EndChar

StartChar: foundryicon
Encoding: 65546 -1 280
Width: 1347
VWidth: 0
Flags: HW
PickledData: "(dp1
S'org.robofab.postScriptHintData'
p2
(dp3
s."
LayerCount: 2
Fore
SplineSet
449 405 m 257
 496 672 l 257
 602 672 l 257
 746 523 l 257
 772 672 l 257
 878 672 l 257
 831 405 l 257
 725 405 l 257
 581 552 l 257
 555 405 l 257
 449 405 l 257
173 2 m 257
 611 278 l 257
 959 2 l 257
 896 461 l 257
 1339 755 l 257
 854 755 l 257
 776 1215 l 257
 545 755 l 257
 60 755 l 257
 397 461 l 257
 173 2 l 257
EndSplineSet
EndChar

StartChar: four
Encoding: 52 52 281
Width: 1250
VWidth: 0
Flags: HW
PickledData: "(dp1
S'org.robofab.postScriptHintData'
p2
(dp3
s."
LayerCount: 2
Fore
SplineSet
656 0 m 257
 823 0 l 257
 884 351 l 257
 1096 351 l 257
 1124 506 l 257
 912 506 l 257
 970 837 l 257
 803 837 l 257
 745 506 l 257
 329 506 l 257
 1008 1446 l 257
 799 1446 l 257
 105 508 l 257
 77 351 l 257
 717 351 l 257
 656 0 l 257
EndSplineSet
Substitution2: "supsSuperscriptlookup11 subtable" uni2074
EndChar

StartChar: uni2074
Encoding: 8308 8308 282
Width: 1050
VWidth: 0
Flags: HW
PickledData: "(dp1
S'org.robofab.postScriptHintData'
p2
(dp3
s."
LayerCount: 2
Fore
SplineSet
518 694 m 257
 637 694 l 257
 669 877 l 257
 797 877 l 257
 815 979 l 257
 687 979 l 257
 724 1186 l 257
 605 1186 l 257
 568 979 l 257
 326 979 l 257
 764 1545 l 257
 623 1545 l 257
 163 972 l 257
 146 877 l 257
 550 877 l 257
 518 694 l 257
EndSplineSet
EndChar

StartChar: fraction
Encoding: 8260 8260 283
Width: 768
VWidth: 0
Flags: HW
PickledData: "(dp1
S'org.robofab.postScriptHintData'
p2
(dp3
s."
LayerCount: 2
Fore
SplineSet
-117 0 m 257
 70 0 l 257
 885 1506 l 257
 702 1506 l 257
 -117 0 l 257
EndSplineSet
EndChar

StartChar: g
Encoding: 103 103 284
Width: 1182
VWidth: 0
Flags: HW
PickledData: "(dp1
S'org.robofab.postScriptHintData'
p2
(dp3
s."
AnchorPoint: "top" 693 1060 basechar 0
LayerCount: 2
Fore
SplineSet
472 -408 m 256
 752 -408 911 -223 955 25 c 258
 1138 1060 l 257
 950 1060 l 257
 935 975 l 257
 913 1025 789 1080 681 1080 c 256
 405 1080 255 941 217 728 c 258
 156 379 l 258
 151 350 148 323 148 298 c 0
 148 130 262 40 498 40 c 256
 571 40 713 60 783 116 c 257
 757 -31 l 258
 730 -188 643 -265 458 -265 c 256
 358 -265 250 -248 196 -227 c 257
 129 -368 l 257
 202 -397 329 -408 472 -408 c 256
552 184 m 256
 427 184 335 216 335 316 c 0
 335 326 336 338 338 350 c 258
 409 748 l 258
 432 878 536 936 684 936 c 256
 835 936 904 892 904 815 c 0
 904 807 904 799 902 790 c 258
 809 264 l 257
 775 240 692 184 552 184 c 256
EndSplineSet
EndChar

StartChar: germandbls
Encoding: 223 223 291
Width: 1281
VWidth: 0
Flags: HW
PickledData: "(dp1
S'org.robofab.postScriptHintData'
p2
(dp3
s."
LayerCount: 2
Fore
SplineSet
59 0 m 257
 247 0 l 257
 447 1131 l 258
 477 1305 601 1332 747 1332 c 256
 865 1332 943 1305 943 1186 c 0
 943 1166 940 1144 936 1119 c 256
 913 989 848 912 630 912 c 257
 605 770 l 257
 814 770 954 750 954 569 c 0
 954 544 951 516 946 485 c 256
 892 182 685 168 413 148 c 257
 405 0 l 257
 811 0 1056 119 1121 488 c 256
 1129 533 1133 572 1133 606 c 0
 1133 799 1018 836 926 878 c 257
 1039 908 1099 979 1126 1135 c 256
 1131 1164 1134 1190 1134 1216 c 0
 1134 1381 1026 1483 783 1483 c 256
 527 1483 306 1401 254 1103 c 258
 59 0 l 257
EndSplineSet
EndChar

StartChar: grave
Encoding: 96 96 292
Width: 616
VWidth: 0
Flags: HW
PickledData: "(dp1
S'org.robofab.postScriptHintData'
p2
(dp3
s."
AnchorPoint: "top" 280 1060 mark 0
LayerCount: 2
Fore
SplineSet
59 1585 m 257
 226 1204 l 257
 354 1204 l 257
 284 1585 l 257
 59 1585 l 257
EndSplineSet
EndChar

StartChar: greater
Encoding: 62 62 293
Width: 1250
VWidth: 0
Flags: HW
PickledData: "(dp1
S'org.robofab.postScriptHintData'
p2
(dp3
s."
LayerCount: 2
Fore
SplineSet
107 0 m 257
 1076 472 l 257
 1112 673 l 257
 309 1144 l 257
 272 935 l 257
 939 571 l 257
 143 203 l 257
 107 0 l 257
EndSplineSet
EndChar

StartChar: guillemotleft
Encoding: 171 171 295
Width: 1054
VWidth: 0
Flags: HW
PickledData: "(dp1
S'org.robofab.postScriptHintData'
p2
(dp3
s."
LayerCount: 2
Fore
SplineSet
297 80 m 257
 449 150 l 257
 309 530 l 257
 583 910 l 257
 448 980 l 257
 96 530 l 257
 297 80 l 257
711 80 m 257
 861 150 l 257
 723 530 l 257
 995 910 l 257
 862 980 l 257
 510 530 l 257
 711 80 l 257
EndSplineSet
EndChar

StartChar: guillemotright
Encoding: 187 187 296
Width: 1054
VWidth: 0
Flags: HW
PickledData: "(dp1
S'org.robofab.postScriptHintData'
p2
(dp3
s."
LayerCount: 2
Fore
SplineSet
192 80 m 257
 544 530 l 257
 343 980 l 257
 193 910 l 257
 331 530 l 257
 59 150 l 257
 192 80 l 257
606 80 m 257
 958 530 l 257
 757 980 l 257
 605 910 l 257
 745 530 l 257
 471 150 l 257
 606 80 l 257
EndSplineSet
EndChar

StartChar: guilsinglleft
Encoding: 8249 8249 297
Width: 768
VWidth: 0
Flags: HW
PickledData: "(dp1
S'org.robofab.postScriptHintData'
p2
(dp3
s."
LayerCount: 2
Fore
SplineSet
375 80 m 257
 527 150 l 257
 387 530 l 257
 661 910 l 257
 526 980 l 257
 174 530 l 257
 375 80 l 257
EndSplineSet
EndChar

StartChar: guilsinglright
Encoding: 8250 8250 298
Width: 768
VWidth: 0
Flags: HW
PickledData: "(dp1
S'org.robofab.postScriptHintData'
p2
(dp3
s."
LayerCount: 2
Fore
SplineSet
248 80 m 257
 600 530 l 257
 399 980 l 257
 247 910 l 257
 387 530 l 257
 113 150 l 257
 248 80 l 257
EndSplineSet
EndChar

StartChar: h
Encoding: 104 104 299
Width: 1224
VWidth: 0
Flags: HW
PickledData: "(dp1
S'org.robofab.postScriptHintData'
p2
(dp3
s."
AnchorPoint: "top" 741 1060 basechar 0
AnchorPoint: "mid" 377 1276 basechar 0
LayerCount: 2
Fore
SplineSet
53 0 m 257
 241 0 l 257
 375 758 l 258
 393 860 490 936 674 936 c 256
 792 936 870 897 870 812 c 0
 870 803 869 793 867 783 c 258
 729 0 l 257
 917 0 l 257
 1054 773 l 258
 1058 795 1060 817 1060 838 c 0
 1060 975 974 1080 748 1080 c 256
 594 1080 485 1032 411 960 c 257
 507 1505 l 257
 319 1505 l 257
 53 0 l 257
EndSplineSet
EndChar

StartChar: hbar
Encoding: 295 295 300
Width: 1224
VWidth: 0
Flags: HW
PickledData: "(dp1
S'org.robofab.postScriptHintData'
p2
(dp3
s."
LayerCount: 2
Fore
SplineSet
117 1249 m 257
 932 1249 l 257
 953 1373 l 257
 138 1373 l 257
 117 1249 l 257
EndSplineSet
Refer: 299 104 N 1 0 0 1 0 0 2
EndChar

StartChar: hungarumlaut
Encoding: 733 733 302
Width: 1024
VWidth: 0
Flags: HW
PickledData: "(dp1
S'org.robofab.postScriptHintData'
p2
(dp3
s."
AnchorPoint: "top" 347 1060 mark 0
LayerCount: 2
Fore
SplineSet
130 1293 m 257
 258 1293 l 257
 561 1674 l 257
 336 1674 l 257
 130 1293 l 257
540 1293 m 257
 668 1293 l 257
 971 1674 l 257
 746 1674 l 257
 540 1293 l 257
EndSplineSet
EndChar

StartChar: hyphen
Encoding: 45 45 303
Width: 1024
VWidth: 0
Flags: HW
PickledData: "(dp1
S'org.robofab.postScriptHintData'
p2
(dp3
s."
AnchorPoint: "mid" 507 567 mark 0
LayerCount: 2
Fore
SplineSet
159 499 m 257
 819 499 l 257
 845 642 l 257
 185 642 l 257
 159 499 l 257
EndSplineSet
EndChar

StartChar: infinity
Encoding: 8734 8734 316
Width: 1650
VWidth: 0
Flags: HW
PickledData: "(dp1
S'org.robofab.postScriptHintData'
p2
(dp3
s."
LayerCount: 2
Fore
SplineSet
310 485 m 256
 488 485 803 736 803 736 c 257
 803 736 1044 485 1222 485 c 256
 1425 485 1556 652 1586 820 c 256
 1590 844 1592 868 1592 891 c 0
 1592 1033 1513 1158 1340 1158 c 256
 1162 1158 838 933 838 933 c 257
 838 933 606 1158 428 1158 c 256
 225 1158 94 990 64 822 c 256
 60 798 58 774 58 750 c 0
 58 609 136 485 310 485 c 256
215 770 m 0
 215 900 296 1027 412 1027 c 256
 486 1027 718 829 718 829 c 257
 718 829 414 616 340 616 c 256
 253 616 215 687 215 770 c 0
1422 872 m 0
 1422 742 1341 616 1225 616 c 256
 1151 616 920 826 920 826 c 257
 920 826 1223 1027 1297 1027 c 256
 1384 1027 1422 955 1422 872 c 0
EndSplineSet
EndChar

StartChar: integral
Encoding: 8747 8747 317
Width: 890
VWidth: 0
Flags: HW
PickledData: "(dp1
S'org.robofab.postScriptHintData'
p2
(dp3
s."
LayerCount: 2
Fore
SplineSet
88 -380 m 256
 289 -380 374 -288 408 -99 c 258
 633 1181 l 258
 648 1267 682 1339 820 1339 c 256
 830 1339 839 1339 850 1338 c 257
 872 1462 l 257
 835 1466 800 1468 769 1468 c 256
 561 1468 480 1376 441 1159 c 258
 215 -127 l 258
 200 -208 160 -251 49 -251 c 256
 34 -251 18 -251 1 -249 c 257
 -21 -373 l 257
 18 -378 55 -380 88 -380 c 256
EndSplineSet
EndChar

StartChar: k
Encoding: 107 107 323
Width: 1145
VWidth: 0
Flags: HW
PickledData: "(dp1
S'org.robofab.postScriptHintData'
p2
(dp3
s."
AnchorPoint: "top" 668 1060 basechar 0
AnchorPoint: "bot" 493 0 basechar 0
LayerCount: 2
Fore
SplineSet
53 0 m 257
 241 0 l 257
 300 334 l 257
 487 492 l 257
 780 0 l 257
 997 0 l 257
 628 594 l 257
 1141 1060 l 257
 935 1060 l 257
 334 524 l 257
 507 1506 l 257
 319 1506 l 257
 53 0 l 257
EndSplineSet
EndChar

StartChar: kgreenlandic
Encoding: 312 312 326
Width: 1148
VWidth: 0
Flags: HW
PickledData: "(dp1
S'org.robofab.postScriptHintData'
p2
(dp3
s."
LayerCount: 2
Fore
SplineSet
93 0 m 257
 281 0 l 257
 343 354 l 257
 515 498 l 257
 812 0 l 257
 1029 0 l 257
 674 583 l 257
 1172 1060 l 257
 964 1060 l 257
 763 877 573 692 370 510 c 257
 467 1060 l 257
 279 1060 l 257
 93 0 l 257
EndSplineSet
EndChar

StartChar: l
Encoding: 108 108 327
Width: 692
VWidth: 0
Flags: HW
PickledData: "(dp1
S'org.robofab.postScriptHintData'
p2
(dp3
s."
AnchorPoint: "top" 435 1506 basechar 0
AnchorPoint: "caron.alt" 289 1060 basechar 0
AnchorPoint: "bot" 248 0 basechar 0
LayerCount: 2
Fore
SplineSet
397 -8 m 258
 451 -8 l 257
 500 150 l 257
 467 150 l 258
 345 150 298 170 298 260 c 0
 298 286 302 318 309 356 c 258
 511 1505 l 257
 323 1505 l 257
 121 358 l 258
 111 303 107 255 107 215 c 0
 107 31 207 -8 397 -8 c 258
EndSplineSet
EndChar

StartChar: less
Encoding: 60 60 332
Width: 1250
VWidth: 0
Flags: HW
PickledData: "(dp1
S'org.robofab.postScriptHintData'
p2
(dp3
s."
LayerCount: 2
Fore
SplineSet
941 0 m 257
 978 209 l 257
 311 573 l 257
 1107 941 l 257
 1143 1144 l 257
 174 672 l 257
 138 471 l 257
 941 0 l 257
EndSplineSet
EndChar

StartChar: logicalnot
Encoding: 172 172 335
Width: 864
VWidth: 0
Flags: HW
PickledData: "(dp1
S'org.robofab.postScriptHintData'
p2
(dp3
s."
LayerCount: 2
Fore
SplineSet
557 333 m 257
 689 333 l 257
 753 692 l 257
 130 692 l 257
 106 556 l 257
 597 556 l 257
 557 333 l 257
EndSplineSet
EndChar

StartChar: lozenge
Encoding: 9674 9674 336
Width: 1104
VWidth: 0
Flags: HW
PickledData: "(dp1
S'org.robofab.postScriptHintData'
p2
(dp3
s."
LayerCount: 2
Fore
SplineSet
353 0 m 257
 523 0 l 257
 988 725 l 257
 777 1446 l 257
 607 1446 l 257
 116 725 l 257
 353 0 l 257
468 160 m 257
 295 725 l 257
 665 1276 l 257
 814 725 l 257
 468 160 l 257
EndSplineSet
EndChar

StartChar: lslash
Encoding: 322 322 337
Width: 708
VWidth: 0
Flags: HW
PickledData: "(dp1
S'org.robofab.postScriptHintData'
p2
(dp3
s."
LayerCount: 2
Fore
SplineSet
29 616 m 257
 628 887 l 257
 650 1011 l 257
 51 740 l 257
 29 616 l 257
EndSplineSet
Refer: 327 108 N 1 0 0 1 0 0 2
EndChar

StartChar: m
Encoding: 109 109 338
Width: 1860
VWidth: 0
Flags: HW
PickledData: "(dp1
S'org.robofab.postScriptHintData'
p2
(dp3
s."
AnchorPoint: "top" 1086 1060 basechar 0
LayerCount: 2
Fore
SplineSet
91 0 m 257
 279 0 l 257
 412 755 l 258
 430 857 516 936 700 936 c 256
 817 936 889 896 889 812 c 0
 889 802 888 792 886 781 c 258
 749 0 l 257
 937 0 l 257
 1070 755 l 258
 1088 857 1174 936 1358 936 c 256
 1474 936 1541 897 1541 814 c 0
 1541 804 1540 793 1538 781 c 258
 1401 0 l 257
 1589 0 l 257
 1725 770 l 258
 1729 795 1732 819 1732 842 c 0
 1732 977 1654 1080 1431 1080 c 256
 1277 1080 1169 1031 1060 941 c 257
 1024 1024 937 1080 773 1080 c 256
 619 1080 522 1029 448 957 c 257
 466 1060 l 257
 278 1060 l 257
 91 0 l 257
EndSplineSet
EndChar

StartChar: macron
Encoding: 175 175 339
Width: 513
VWidth: 0
Flags: HW
PickledData: "(dp1
S'org.robofab.postScriptHintData'
p2
(dp3
s."
AnchorPoint: "top" 198 1060 mark 0
AnchorPoint: "mid" 257 1394 mark 0
LayerCount: 2
Fore
SplineSet
-21 1321 m 257
 508 1321 l 257
 534 1468 l 257
 5 1468 l 257
 -21 1321 l 257
EndSplineSet
EndChar

StartChar: minus
Encoding: 8722 8722 342
Width: 911
VWidth: 0
Flags: HW
PickledData: "(dp1
S'org.robofab.postScriptHintData'
p2
(dp3
s."
LayerCount: 2
Fore
SplineSet
127 439 m 257
 754 439 l 257
 784 609 l 257
 157 609 l 257
 127 439 l 257
EndSplineSet
EndChar

StartChar: mu
Encoding: 956 956 343
Width: 1224
VWidth: 0
Flags: HW
PickledData: "(dp1
S'org.robofab.postScriptHintData'
p2
(dp3
s."
AnchorPoint: "top" 749 1060 basechar 0
AnchorPoint: "ogonek" 897 0 basechar 0
LayerCount: 2
Fore
SplineSet
975 1060 m 257
 843 309 l 258
 827 220 722 122 538 122 c 256
 420 122 350 172 350 258 c 0
 350 268 351 278 353 289 c 258
 489 1060 l 257
 301 1060 l 257
 47 -383 l 257
 235 -383 l 257
 304 7 l 257
 348 -12 405 -22 475 -22 c 256
 629 -22 741 38 812 133 c 257
 808 0 l 257
 976 0 l 257
 1163 1060 l 257
 975 1060 l 257
EndSplineSet
EndChar

StartChar: multiply
Encoding: 215 215 344
Width: 973
VWidth: 0
Flags: HW
PickledData: "(dp1
S'org.robofab.postScriptHintData'
p2
(dp3
s."
LayerCount: 2
Fore
SplineSet
175 216 m 257
 466 458 l 257
 671 216 l 257
 803 344 l 257
 608 576 l 257
 884 806 l 257
 799 937 l 257
 508 694 l 257
 303 937 l 257
 169 806 l 257
 366 576 l 257
 88 344 l 257
 175 216 l 257
EndSplineSet
EndChar

StartChar: n
Encoding: 110 110 345
Width: 1224
VWidth: 0
Flags: HW
PickledData: "(dp1
S'org.robofab.postScriptHintData'
p2
(dp3
s."
AnchorPoint: "top" 776 1060 basechar 0
AnchorPoint: "bot" 518 0 basechar 0
LayerCount: 2
Fore
SplineSet
91 0 m 257
 279 0 l 257
 412 755 l 258
 430 857 526 936 710 936 c 256
 828 936 907 895 907 810 c 0
 907 801 906 791 904 781 c 258
 767 0 l 257
 955 0 l 257
 1091 770 l 258
 1095 792 1097 814 1097 835 c 0
 1097 973 1010 1080 783 1080 c 256
 629 1080 522 1029 448 957 c 257
 466 1060 l 257
 278 1060 l 257
 91 0 l 257
EndSplineSet
EndChar

StartChar: nine
Encoding: 57 57 350
Width: 1250
VWidth: 0
Flags: HW
PickledData: "(dp1
S'org.robofab.postScriptHintData'
p2
(dp3
s."
LayerCount: 2
Fore
SplineSet
322 0 m 257
 522 0 l 257
 932 549 l 257
 1056 718 1131 878 1156 1020 c 256
 1163 1061 1167 1100 1167 1135 c 0
 1167 1371 1006 1468 766 1468 c 256
 490 1468 258 1342 202 1024 c 256
 194 979 190 939 190 901 c 0
 190 663 345 568 601 568 c 256
 661 568 739 586 785 605 c 257
 322 0 l 257
633 731 m 256
 481 731 380 765 380 927 c 0
 380 955 383 988 389 1024 c 256
 429 1249 555 1306 735 1306 c 256
 888 1306 979 1265 979 1114 c 0
 979 1087 976 1056 970 1021 c 256
 931 800 814 731 633 731 c 256
EndSplineSet
EndChar

StartChar: notequal
Encoding: 8800 8800 352
Width: 768
VWidth: 0
Flags: HW
PickledData: "(dp1
S'org.robofab.postScriptHintData'
p2
(dp3
s."
LayerCount: 2
Fore
SplineSet
42 205 m 257
 189 205 l 257
 738 1186 l 257
 595 1186 l 257
 42 205 l 257
EndSplineSet
Refer: 261 61 N 1 0 0 1 -241 0 2
EndChar

StartChar: numbersign
Encoding: 35 35 354
Width: 1284
VWidth: 0
Flags: HW
PickledData: "(dp1
S'org.robofab.postScriptHintData'
p2
(dp3
s."
LayerCount: 2
Fore
SplineSet
53 0 m 257
 231 0 l 257
 398 475 l 257
 696 475 l 257
 526 0 l 257
 704 0 l 257
 871 475 l 257
 1130 475 l 257
 1151 594 l 257
 913 594 l 257
 1025 910 l 257
 1231 910 l 257
 1252 1029 l 257
 1067 1029 l 257
 1214 1446 l 257
 1044 1446 l 257
 895 1029 l 257
 594 1029 l 257
 741 1446 l 257
 571 1446 l 257
 422 1029 l 257
 164 1029 l 257
 143 910 l 257
 379 910 l 257
 266 594 l 257
 63 594 l 257
 42 475 l 257
 223 475 l 257
 53 0 l 257
440 594 m 257
 552 910 l 257
 852 910 l 257
 739 594 l 257
 440 594 l 257
EndSplineSet
EndChar

StartChar: o
Encoding: 111 111 355
Width: 1174
VWidth: 0
Flags: HW
PickledData: "(dp1
S'org.robofab.postScriptHintData'
p2
(dp3
s."
AnchorPoint: "top" 679 1060 basechar 0
AnchorPoint: "ogonek" 542 0 basechar 0
AnchorPoint: "bot" 501 0 basechar 0
LayerCount: 2
Fore
SplineSet
515 122 m 256
 380 122 292 160 292 262 c 0
 292 274 293 286 295 299 c 258
 376 758 l 258
 399 889 509 936 659 936 c 256
 791 936 881 898 881 795 c 0
 881 784 880 771 878 758 c 258
 797 299 l 258
 774 168 662 122 515 122 c 256
490 -22 m 256
 806 -22 954 119 988 315 c 258
 1064 742 l 258
 1068 766 1070 790 1070 812 c 0
 1070 971 961 1080 684 1080 c 256
 365 1080 220 938 186 742 c 258
 110 315 l 258
 106 290 103 267 103 244 c 0
 103 86 211 -22 490 -22 c 256
EndSplineSet
Substitution2: "Single Substitution lookup 10 subtable" ordmasculine
EndChar

StartChar: oe
Encoding: 339 339 362
Width: 1734
VWidth: 0
Flags: HW
PickledData: "(dp1
S'org.robofab.postScriptHintData'
p2
(dp3
s."
AnchorPoint: "top" 774 0 basechar 0
LayerCount: 2
Fore
SplineSet
472 -20 m 257
 633 -20 735 34 811 122 c 257
 860 35 957 -20 1101 -20 c 256
 1391 -20 1501 73 1568 331 c 257
 1398 331 l 257
 1353 148 1292 121 1126 121 c 256
 1000 121 938 169 938 271 c 0
 938 288 939 307 943 328 c 258
 975 506 l 257
 1600 506 l 257
 1644 758 l 258
 1648 783 1651 806 1651 828 c 0
 1651 986 1537 1080 1295 1080 c 256
 1150 1080 1039 1043 957 950 c 257
 903 1043 804 1080 666 1080 c 256
 403 1080 224 947 188 747 c 258
 112 317 l 258
 107 289 105 263 105 238 c 0
 105 84 200 -20 472 -20 c 257
497 121 m 256
 368 121 294 159 294 258 c 0
 294 271 295 285 298 301 c 258
 379 763 l 258
 402 894 502 938 641 938 c 256
 768 938 836 900 836 806 c 0
 836 793 835 778 832 763 c 258
 751 301 l 258
 728 171 636 121 497 121 c 256
997 633 m 257
 1020 760 l 258
 1043 891 1120 938 1270 938 c 256
 1398 938 1470 913 1470 819 c 0
 1470 807 1469 793 1466 778 c 258
 1440 633 l 257
 997 633 l 257
EndSplineSet
EndChar

StartChar: ogonek
Encoding: 731 731 363
Width: 513
VWidth: 0
Flags: HW
PickledData: "(dp1
S'org.robofab.postScriptHintData'
p2
(dp3
s."
AnchorPoint: "ogonek" 363 0 mark 0
LayerCount: 2
Fore
SplineSet
364 -476 m 257
 381 -379 l 257
 271 -379 233 -335 233 -275 c 0
 233 -265 234 -255 236 -245 c 256
 251 -160 323 -54 401 10 c 257
 339 10 l 257
 189 -100 120 -201 106 -281 c 256
 104 -291 103 -301 103 -311 c 0
 103 -412 201 -476 364 -476 c 257
EndSplineSet
EndChar

StartChar: one
Encoding: 49 49 368
Width: 1250
VWidth: 0
Flags: HW
PickledData: "(dp1
S'org.robofab.postScriptHintData'
p2
(dp3
s."
LayerCount: 2
Fore
SplineSet
79 0 m 257
 1035 0 l 257
 1062 155 l 257
 708 155 l 257
 935 1446 l 257
 771 1446 l 257
 334 1396 l 257
 324 1237 l 257
 705 1277 l 257
 507 155 l 257
 106 155 l 257
 79 0 l 257
EndSplineSet
Substitution2: "supsSuperscriptlookup11 subtable" uni00B9
EndChar

StartChar: onehalf
Encoding: 189 189 369
Width: 2047
VWidth: 0
Flags: HW
PickledData: "(dp1
S'org.robofab.postScriptHintData'
p2
(dp3
s."
LayerCount: 2
Fore
SplineSet
1239 2 m 257
 1751 2 l 257
 1768 101 l 257
 1397 101 l 257
 1652 339 l 258
 1750 431 1834 495 1857 625 c 256
 1860 642 1861 659 1861 675 c 0
 1861 784 1792 867 1634 867 c 256
 1465 867 1338 789 1306 605 c 257
 1423 605 l 257
 1447 741 1496 765 1618 765 c 256
 1705 765 1743 733 1743 666 c 0
 1743 653 1742 639 1739 624 c 256
 1725 542 1683 503 1583 413 c 257
 1244 94 l 257
 1239 2 l 257
147 654 m 257
 783 654 l 257
 800 755 l 257
 569 755 l 257
 702 1505 l 257
 595 1505 l 257
 297 1472 l 257
 291 1368 l 257
 551 1394 l 257
 438 755 l 257
 164 755 l 257
 147 654 l 257
554 0 m 257
 686 0 l 257
 1619 1446 l 257
 1493 1446 l 257
 554 0 l 257
EndSplineSet
Ligature2: "fracDiagonalFractionslookup12 subtable" one slash two
EndChar

StartChar: onequarter
Encoding: 188 188 370
Width: 2047
VWidth: 0
Flags: HW
PickledData: "(dp1
S'org.robofab.postScriptHintData'
p2
(dp3
s."
LayerCount: 2
Fore
SplineSet
1522 0 m 257
 1635 0 l 257
 1672 207 l 257
 1816 207 l 257
 1832 298 l 257
 1688 298 l 257
 1729 533 l 257
 1616 533 l 257
 1575 298 l 257
 1293 298 l 257
 1746 892 l 257
 1605 892 l 257
 1141 299 l 257
 1125 207 l 257
 1559 207 l 257
 1522 0 l 257
147 654 m 257
 783 654 l 257
 800 755 l 257
 569 755 l 257
 702 1505 l 257
 595 1505 l 257
 297 1472 l 257
 291 1368 l 257
 551 1394 l 257
 438 755 l 257
 164 755 l 257
 147 654 l 257
554 0 m 257
 686 0 l 257
 1619 1446 l 257
 1493 1446 l 257
 554 0 l 257
EndSplineSet
Ligature2: "fracDiagonalFractionslookup12 subtable" one slash four
EndChar

StartChar: uni00B9
Encoding: 185 185 371
Width: 1050
VWidth: 0
Flags: HW
PickledData: "(dp1
S'org.robofab.postScriptHintData'
p2
(dp3
s."
LayerCount: 2
Fore
SplineSet
132 694 m 257
 768 694 l 257
 786 795 l 257
 555 795 l 257
 687 1545 l 257
 580 1545 l 257
 282 1512 l 257
 276 1408 l 257
 536 1434 l 257
 424 795 l 257
 150 795 l 257
 132 694 l 257
EndSplineSet
EndChar

StartChar: oslash
Encoding: 248 248 375
Width: 1174
VWidth: 0
Flags: HW
PickledData: "(dp1
S'org.robofab.postScriptHintData'
p2
(dp3
s."
AnchorPoint: "top" 684 1060 basechar 0
LayerCount: 2
Fore
SplineSet
233 -226 m 257
 1026 1220 l 257
 941 1251 l 257
 146 -195 l 257
 233 -226 l 257
EndSplineSet
Refer: 355 111 N 1 0 0 1 0 0 2
EndChar

StartChar: p
Encoding: 112 112 378
Width: 1198
VWidth: 0
Flags: HW
PickledData: "(dp1
S'org.robofab.postScriptHintData'
p2
(dp3
s."
AnchorPoint: "top" 776 1060 basechar 0
LayerCount: 2
Fore
SplineSet
55 -408 m 257
 243 -408 l 257
 321 34 l 257
 367 8 442 -22 561 -22 c 256
 837 -22 1014 131 1051 344 c 258
 1119 729 l 258
 1124 755 1126 779 1126 803 c 0
 1126 967 1016 1080 779 1080 c 256
 658 1080 534 1030 470 980 c 257
 462 1060 l 257
 314 1060 l 257
 55 -408 l 257
574 122 m 256
 465 122 390 152 346 179 c 257
 460 824 l 257
 482 850 592 936 725 936 c 256
 849 936 937 883 937 780 c 0
 937 769 936 757 934 744 c 258
 860 324 l 258
 837 194 722 122 574 122 c 256
EndSplineSet
EndChar

StartChar: paragraph
Encoding: 182 182 379
Width: 1250
VWidth: 0
Flags: HW
PickledData: "(dp1
S'org.robofab.postScriptHintData'
p2
(dp3
s."
LayerCount: 2
Fore
SplineSet
390 -210 m 257
 540 -210 l 257
 813 1338 l 257
 952 1338 l 257
 679 -210 l 257
 815 -210 l 257
 1107 1446 l 257
 718 1446 l 258
 524 1446 301 1372 263 1156 c 256
 260 1142 259 1128 259 1115 c 0
 259 961 423 874 580 870 c 257
 390 -210 l 257
EndSplineSet
EndChar

StartChar: parenleft
Encoding: 40 40 380
Width: 768
VWidth: 0
Flags: HW
PickledData: "(dp1
S'org.robofab.postScriptHintData'
p2
(dp3
s."
LayerCount: 2
Fore
SplineSet
493 -150 m 257
 519 0 l 257
 334 0 283 68 283 189 c 0
 283 250 296 323 311 409 c 258
 415 996 l 258
 460 1253 491 1416 769 1416 c 257
 795 1567 l 257
 325 1567 270 1265 216 959 c 258
 125 440 l 258
 108 346 92 252 92 169 c 0
 92 -14 170 -150 493 -150 c 257
EndSplineSet
EndChar

StartChar: parenright
Encoding: 41 41 381
Width: 768
VWidth: 0
Flags: HW
PickledData: "(dp1
S'org.robofab.postScriptHintData'
p2
(dp3
s."
LayerCount: 2
Fore
SplineSet
-27 -150 m 257
 443 -150 498 152 552 458 c 258
 643 977 l 258
 660 1071 676 1165 676 1248 c 0
 676 1431 598 1567 275 1567 c 257
 249 1417 l 257
 434 1417 485 1349 485 1228 c 0
 485 1167 472 1094 457 1008 c 258
 353 421 l 258
 308 164 277 1 -1 1 c 257
 -27 -150 l 257
EndSplineSet
EndChar

StartChar: partialdiff
Encoding: 8706 8706 382
Width: 1202
VWidth: 0
Flags: HW
PickledData: "(dp1
S'org.robofab.postScriptHintData'
p2
(dp3
s."
LayerCount: 2
Fore
SplineSet
334 -20 m 257
 686 -20 993 385 1086 913 c 256
 1097 974 1102 1031 1102 1082 c 0
 1102 1375 935 1507 715 1507 c 256
 606 1507 485 1475 364 1415 c 257
 379 1354 l 257
 459 1389 539 1407 613 1407 c 256
 783 1407 914 1308 914 1088 c 0
 914 1041 906 978 895 931 c 257
 438 924 121 568 73 294 c 256
 69 270 66 246 66 223 c 0
 66 84 149 -20 334 -20 c 257
369 98 m 256
 310 98 283 144 283 211 c 0
 283 228 285 246 288 266 c 256
 325 475 551 808 871 828 c 257
 800 542 611 98 369 98 c 256
EndSplineSet
EndChar

StartChar: percent
Encoding: 37 37 384
Width: 2048
VWidth: 0
Flags: HW
PickledData: "(dp1
S'org.robofab.postScriptHintData'
p2
(dp3
s."
LayerCount: 2
Fore
SplineSet
481 794 m 256
 385 794 357 845 357 924 c 0
 357 958 362 997 369 1040 c 258
 386 1135 l 258
 410 1271 439 1365 582 1365 c 256
 682 1365 711 1319 711 1245 c 0
 711 1213 705 1175 698 1133 c 258
 681 1040 l 257
 657 899 619 794 481 794 c 256
461 678 m 256
 691 678 789 828 829 1057 c 257
 839 1111 l 258
 847 1159 851 1203 851 1242 c 0
 851 1395 785 1481 602 1481 c 256
 371 1481 280 1343 239 1110 c 257
 229 1057 l 258
 220 1008 216 963 216 922 c 0
 216 771 280 678 461 678 c 256
1462 97 m 256
 1366 97 1338 148 1338 226 c 0
 1338 260 1343 300 1351 343 c 258
 1367 438 l 257
 1391 574 1420 668 1563 668 c 256
 1663 668 1692 622 1692 548 c 0
 1692 516 1686 478 1679 436 c 258
 1663 343 l 258
 1638 202 1600 97 1462 97 c 256
1442 -19 m 256
 1672 -19 1770 131 1811 360 c 257
 1820 414 l 258
 1828 462 1832 506 1832 545 c 0
 1832 698 1766 784 1583 784 c 257
 1352 784 1261 646 1220 413 c 257
 1211 360 l 258
 1202 310 1197 264 1197 223 c 0
 1197 73 1262 -19 1442 -19 c 256
539 0 m 257
 693 0 l 257
 1486 1446 l 257
 1337 1446 l 257
 539 0 l 257
EndSplineSet
EndChar

StartChar: period
Encoding: 46 46 385
Width: 628
VWidth: 0
Flags: HW
PickledData: "(dp1
S'org.robofab.postScriptHintData'
p2
(dp3
s."
LayerCount: 2
Fore
SplineSet
165 0 m 257
 421 0 l 257
 463 242 l 257
 207 242 l 257
 165 0 l 257
EndSplineSet
EndChar

StartChar: periodcentered
Encoding: 183 183 386
Width: 734
VWidth: 0
Flags: HW
PickledData: "(dp1
S'org.robofab.postScriptHintData'
p2
(dp3
s."
AnchorPoint: "mid" 103 714 mark 0
LayerCount: 2
Fore
SplineSet
411 622 m 257
 616 622 l 257
 652 828 l 257
 447 828 l 257
 411 622 l 257
EndSplineSet
EndChar

StartChar: perthousand
Encoding: 8240 8240 387
Width: 2886
VWidth: 0
Flags: HW
PickledData: "(dp1
S'org.robofab.postScriptHintData'
p2
(dp3
s."
LayerCount: 2
Fore
SplineSet
516 774 m 256
 420 774 392 825 392 903 c 0
 392 937 397 977 405 1020 c 258
 421 1115 l 257
 445 1251 474 1345 617 1345 c 256
 717 1345 746 1299 746 1225 c 0
 746 1193 740 1155 733 1113 c 258
 717 1020 l 258
 692 879 654 774 516 774 c 256
496 658 m 256
 726 658 824 808 865 1037 c 257
 874 1091 l 258
 882 1139 886 1183 886 1222 c 0
 886 1375 820 1461 637 1461 c 256
 406 1461 315 1323 274 1090 c 257
 265 1037 l 258
 256 988 252 942 252 901 c 0
 252 751 316 658 496 658 c 256
1501 97 m 256
 1405 97 1376 148 1376 227 c 0
 1376 261 1381 300 1389 343 c 258
 1406 438 l 258
 1430 574 1459 668 1602 668 c 256
 1702 668 1731 622 1731 548 c 0
 1731 516 1725 478 1718 436 c 258
 1701 343 l 258
 1676 202 1639 97 1501 97 c 256
1481 -19 m 256
 1711 -19 1809 131 1849 360 c 257
 1859 414 l 258
 1867 462 1871 506 1871 545 c 0
 1871 698 1805 784 1622 784 c 257
 1391 784 1300 646 1259 413 c 257
 1249 360 l 258
 1240 311 1236 266 1236 225 c 0
 1236 74 1300 -19 1481 -19 c 256
2280 97 m 256
 2184 97 2155 148 2155 227 c 0
 2155 261 2160 300 2168 343 c 258
 2185 438 l 258
 2209 574 2238 668 2381 668 c 256
 2481 668 2510 622 2510 548 c 0
 2510 516 2504 478 2497 436 c 258
 2480 343 l 258
 2455 202 2418 97 2280 97 c 256
2260 -19 m 256
 2490 -19 2588 131 2628 360 c 257
 2638 414 l 258
 2646 462 2650 506 2650 545 c 0
 2650 698 2584 784 2401 784 c 257
 2170 784 2079 646 2038 413 c 257
 2028 360 l 258
 2019 311 2015 266 2015 225 c 0
 2015 74 2079 -19 2260 -19 c 256
578 0 m 257
 732 0 l 257
 1525 1446 l 257
 1376 1446 l 257
 578 0 l 257
EndSplineSet
EndChar

StartChar: pi
Encoding: 960 960 388
Width: 1180
VWidth: 0
Flags: HW
PickledData: "(dp1
S'org.robofab.postScriptHintData'
p2
(dp3
s."
LayerCount: 2
Fore
SplineSet
94 875 m 257
 94 875 211 935 324 935 c 257
 159 0 l 257
 347 0 l 257
 512 935 l 257
 818 935 l 257
 701 267 l 258
 694 228 691 194 691 164 c 0
 691 15 778 -21 949 -22 c 257
 1022 124 l 257
 925 146 889 160 889 234 c 0
 889 259 893 291 900 333 c 258
 1006 935 l 257
 1188 935 l 257
 1210 1060 l 257
 313 1060 l 258
 192 1060 116 1000 116 1000 c 257
 94 875 l 257
EndSplineSet
EndChar

StartChar: plus
Encoding: 43 43 389
Width: 1024
VWidth: 0
Flags: HW
PickledData: "(dp1
S'org.robofab.postScriptHintData'
p2
(dp3
s."
LayerCount: 2
Fore
SplineSet
365 156 m 257
 516 156 l 257
 576 494 l 257
 850 494 l 257
 876 642 l 257
 602 642 l 257
 660 968 l 257
 509 968 l 257
 451 642 l 257
 176 642 l 257
 150 494 l 257
 425 494 l 257
 365 156 l 257
EndSplineSet
EndChar

StartChar: plusminus
Encoding: 177 177 390
Width: 1041
VWidth: 0
Flags: HW
PickledData: "(dp1
S'org.robofab.postScriptHintData'
p2
(dp3
s."
LayerCount: 2
Fore
SplineSet
431 334 m 257
 552 334 l 257
 601 611 l 257
 854 611 l 257
 875 726 l 257
 622 726 l 257
 668 992 l 257
 547 992 l 257
 501 726 l 257
 248 726 l 257
 227 611 l 257
 480 611 l 257
 431 334 l 257
120 0 m 257
 747 0 l 257
 768 120 l 257
 141 120 l 257
 120 0 l 257
EndSplineSet
EndChar

StartChar: product
Encoding: 8719 8719 391
Width: 1792
VWidth: 0
Flags: HW
PickledData: "(dp1
S'org.robofab.postScriptHintData'
p2
(dp3
s."
LayerCount: 2
Fore
SplineSet
589 319 m 257
 720 319 l 257
 779 652 l 257
 957 652 l 258
 1182 652 1257 764 1278 908 c 256
 1281 929 1283 948 1283 966 c 0
 1283 1098 1196 1153 1058 1153 c 258
 736 1153 l 257
 589 319 l 257
795 742 m 257
 851 1062 l 257
 1046 1062 l 258
 1132 1062 1150 1008 1150 956 c 0
 1150 936 1148 917 1145 901 c 258
 1141 877 l 257
 1128 814 1095 742 981 742 c 258
 795 742 l 257
785 82 m 256
 464 82 258 296 258 597 c 0
 258 637 261 679 269 722 c 256
 333 1086 647 1361 1011 1361 c 256
 1334 1361 1537 1148 1537 848 c 0
 1537 808 1534 765 1526 722 c 256
 1462 357 1151 82 785 82 c 256
766 -14 m 256
 1182 -14 1558 303 1632 722 c 256
 1640 769 1644 815 1644 859 c 0
 1644 1206 1395 1456 1026 1456 c 256
 613 1456 234 1139 160 722 c 256
 152 675 148 629 148 585 c 0
 148 236 399 -14 766 -14 c 256
EndSplineSet
EndChar

StartChar: q
Encoding: 113 113 392
Width: 1200
VWidth: 0
Flags: HW
PickledData: "(dp1
S'org.robofab.postScriptHintData'
p2
(dp3
s."
LayerCount: 2
Fore
SplineSet
695 -408 m 257
 883 -408 l 257
 1142 1060 l 257
 954 1060 l 257
 939 975 l 257
 917 1025 799 1080 691 1080 c 256
 415 1080 255 941 217 728 c 258
 144 314 l 258
 140 292 138 270 138 250 c 0
 138 83 268 -22 510 -22 c 257
 583 -22 701 -3 775 47 c 257
 695 -408 l 257
547 122 m 256
 422 122 324 151 324 251 c 0
 324 261 325 272 327 284 c 258
 409 748 l 258
 432 878 546 936 694 936 c 256
 849 936 911 879 911 823 c 0
 911 819 911 814 910 810 c 258
 802 201 l 257
 788 180 687 122 547 122 c 256
EndSplineSet
EndChar

StartChar: question
Encoding: 63 63 393
Width: 1240
VWidth: 0
Flags: HW
PickledData: "(dp1
S'org.robofab.postScriptHintData'
p2
(dp3
s."
LayerCount: 2
Fore
SplineSet
413 431 m 257
 573 431 l 257
 819 650 l 258
 1003 814 1131 931 1163 1114 c 256
 1167 1137 1170 1161 1170 1185 c 0
 1170 1328 1084 1468 786 1468 c 256
 445 1468 292 1374 238 1071 c 257
 233 1039 l 257
 430 1039 l 257
 439 1092 l 257
 463 1225 542 1306 758 1306 c 256
 906 1306 954 1248 954 1161 c 0
 954 1143 952 1123 948 1103 c 256
 927 986 856 909 751 795 c 258
 413 431 l 257
311 0 m 257
 515 0 l 257
 551 206 l 257
 347 206 l 257
 311 0 l 257
EndSplineSet
EndChar

StartChar: quotedbl
Encoding: 34 34 395
Width: 890
VWidth: 0
Flags: HW
PickledData: "(dp1
S'org.robofab.postScriptHintData'
p2
(dp3
s."
LayerCount: 2
Fore
SplineSet
169 930 m 257
 281 930 l 257
 432 1506 l 257
 227 1506 l 257
 169 930 l 257
502 930 m 257
 614 930 l 257
 765 1506 l 257
 560 1506 l 257
 502 930 l 257
EndSplineSet
EndChar

StartChar: quotedblbase
Encoding: 8222 8222 396
Width: 1181
VWidth: 0
Flags: HW
PickledData: "(dp1
S'org.robofab.postScriptHintData'
p2
(dp3
s."
LayerCount: 2
Fore
SplineSet
639 -338 m 257
 706 -284 845 -141 879 50 c 258
 911 233 l 257
 654 233 l 257
 613 0 l 257
 754 0 l 257
 731 -132 622 -239 565 -294 c 257
 639 -338 l 257
227 -338 m 257
 294 -284 433 -141 467 50 c 258
 499 233 l 257
 242 233 l 257
 201 0 l 257
 342 0 l 257
 319 -132 210 -239 153 -294 c 257
 227 -338 l 257
EndSplineSet
EndChar

StartChar: quotedblleft
Encoding: 8220 8220 397
Width: 1181
VWidth: 0
Flags: HW
PickledData: "(dp1
S'org.robofab.postScriptHintData'
p2
(dp3
s."
LayerCount: 2
Fore
SplineSet
542 1468 m 257
 475 1414 336 1271 302 1080 c 258
 270 897 l 257
 527 897 l 257
 568 1130 l 257
 427 1130 l 257
 450 1262 559 1369 616 1424 c 257
 542 1468 l 257
954 1468 m 257
 887 1414 748 1271 714 1080 c 258
 682 897 l 257
 939 897 l 257
 980 1130 l 257
 839 1130 l 257
 862 1262 971 1369 1028 1424 c 257
 954 1468 l 257
EndSplineSet
EndChar

StartChar: quotedblright
Encoding: 8221 8221 398
Width: 1181
VWidth: 0
Flags: HW
PickledData: "(dp1
S'org.robofab.postScriptHintData'
p2
(dp3
s."
LayerCount: 2
Fore
SplineSet
227 897 m 257
 294 951 433 1094 467 1285 c 258
 499 1468 l 257
 242 1468 l 257
 201 1235 l 257
 342 1235 l 257
 319 1103 210 996 153 941 c 257
 227 897 l 257
639 897 m 257
 706 951 845 1094 879 1285 c 258
 911 1468 l 257
 654 1468 l 257
 613 1235 l 257
 754 1235 l 257
 731 1103 622 996 565 941 c 257
 639 897 l 257
EndSplineSet
EndChar

StartChar: quoteleft
Encoding: 8216 8216 399
Width: 769
VWidth: 0
Flags: HW
PickledData: "(dp1
S'org.robofab.postScriptHintData'
p2
(dp3
s."
LayerCount: 2
Fore
SplineSet
542 1468 m 257
 475 1414 336 1271 302 1080 c 258
 270 897 l 257
 527 897 l 257
 568 1130 l 257
 427 1130 l 257
 450 1262 559 1369 616 1424 c 257
 542 1468 l 257
EndSplineSet
EndChar

StartChar: quoteright
Encoding: 8217 8217 400
Width: 769
VWidth: 0
Flags: HW
PickledData: "(dp1
S'org.robofab.postScriptHintData'
p2
(dp3
s."
LayerCount: 2
Fore
SplineSet
227 897 m 257
 294 951 433 1094 467 1285 c 258
 499 1468 l 257
 242 1468 l 257
 201 1235 l 257
 342 1235 l 257
 319 1103 210 996 153 941 c 257
 227 897 l 257
EndSplineSet
EndChar

StartChar: quotesinglbase
Encoding: 8218 8218 401
Width: 769
VWidth: 0
Flags: HW
PickledData: "(dp1
S'org.robofab.postScriptHintData'
p2
(dp3
s."
LayerCount: 2
Fore
SplineSet
227 -338 m 257
 294 -284 433 -141 467 50 c 258
 499 233 l 257
 242 233 l 257
 201 0 l 257
 342 0 l 257
 319 -132 210 -239 153 -294 c 257
 227 -338 l 257
EndSplineSet
EndChar

StartChar: quotesingle
Encoding: 39 39 402
Width: 896
VWidth: 0
Flags: HW
PickledData: "(dp1
S'org.robofab.postScriptHintData'
p2
(dp3
s."
LayerCount: 2
Fore
SplineSet
172 930 m 257
 284 930 l 257
 435 1506 l 257
 230 1506 l 257
 172 930 l 257
EndSplineSet
EndChar

StartChar: r
Encoding: 114 114 403
Width: 798
VWidth: 0
Flags: HW
PickledData: "(dp1
S'org.robofab.postScriptHintData'
p2
(dp3
s."
AnchorPoint: "top" 569 1060 basechar 0
AnchorPoint: "bot" 191 0 basechar 0
LayerCount: 2
Fore
SplineSet
91 0 m 257
 279 0 l 257
 407 722 l 258
 425 828 621 914 802 914 c 257
 837 1075 l 257
 697 1075 511 1027 436 890 c 257
 466 1060 l 257
 278 1060 l 257
 91 0 l 257
EndSplineSet
EndChar

StartChar: radical
Encoding: 8730 8730 405
Width: 1249
VWidth: 0
Flags: HW
PickledData: "(dp1
S'org.robofab.postScriptHintData'
p2
(dp3
s."
LayerCount: 2
Fore
SplineSet
43 442 m 257
 162 442 l 257
 314 0 l 257
 491 0 l 257
 1371 1506 l 257
 1235 1506 l 257
 439 159 l 257
 324 553 l 257
 63 553 l 257
 43 442 l 257
EndSplineSet
EndChar

StartChar: registered
Encoding: 174 174 409
Width: 1784
VWidth: 0
Flags: HW
PickledData: "(dp1
S'org.robofab.postScriptHintData'
p2
(dp3
s."
LayerCount: 2
Fore
SplineSet
1100 666 m 257
 1211 695 1300 796 1300 966 c 0
 1300 1098 1213 1153 1075 1153 c 258
 672 1153 l 257
 525 319 l 257
 656 319 l 257
 715 652 l 257
 974 652 l 257
 1095 319 l 257
 1223 319 l 257
 1100 666 l 257
731 742 m 257
 787 1062 l 257
 1063 1062 l 258
 1149 1062 1167 1008 1167 956 c 0
 1167 936 1165 917 1162 901 c 258
 1158 877 l 257
 1145 814 1112 742 998 742 c 258
 731 742 l 257
781 82 m 256
 460 82 254 296 254 597 c 0
 254 637 257 679 265 722 c 256
 329 1086 643 1361 1007 1361 c 256
 1330 1361 1533 1148 1533 848 c 0
 1533 808 1530 765 1522 722 c 256
 1458 357 1147 82 781 82 c 256
762 -14 m 256
 1178 -14 1554 303 1628 722 c 256
 1636 769 1640 815 1640 859 c 0
 1640 1206 1391 1456 1022 1456 c 256
 609 1456 230 1139 156 722 c 256
 148 675 144 629 144 585 c 0
 144 236 395 -14 762 -14 c 256
EndSplineSet
EndChar

StartChar: ring
Encoding: 730 730 410
Width: 512
VWidth: 0
Flags: HW
PickledData: "(dp1
S'org.robofab.postScriptHintData'
p2
(dp3
s."
AnchorPoint: "top" 206 1060 mark 0
LayerCount: 2
Fore
SplineSet
368 1376 m 0
 368 1273 299 1233 236 1233 c 256
 186 1233 144 1253 144 1316 c 0
 144 1419 214 1459 276 1459 c 256
 326 1459 368 1439 368 1376 c 0
287 1524 m 256
 180 1524 59 1456 59 1309 c 0
 59 1212 136 1168 225 1168 c 256
 332 1168 453 1236 453 1383 c 0
 453 1480 376 1524 287 1524 c 256
EndSplineSet
EndChar

StartChar: s
Encoding: 115 115 412
Width: 982
VWidth: 0
Flags: HW
PickledData: "(dp1
S'org.robofab.postScriptHintData'
p2
(dp3
sS'com.typemytype.robofont.layerData'
p4
(dp5
s."
AnchorPoint: "top" 614 1060 basechar 0
AnchorPoint: "bot" 422 0 basechar 0
LayerCount: 2
Fore
SplineSet
427 -22 m 256
 679 -22 799 116 829 283 c 256
 836 322 840 355 840 384 c 0
 840 479 797 531 670 585 c 258
 438 683 l 257
 384 704 364 723 364 763 c 0
 364 773 366 785 368 799 c 256
 385 895 424 936 596 936 c 256
 685 936 808 903 865 878 c 257
 933 1022 l 257
 860 1053 735 1080 586 1080 c 256
 324 1080 223 969 191 790 c 256
 187 767 185 746 185 727 c 0
 185 635 233 581 353 536 c 257
 589 443 l 258
 656 416 675 387 675 342 c 0
 675 324 672 304 668 281 c 256
 653 192 594 122 427 122 c 256
 283 122 169 176 126 202 c 257
 56 64 l 257
 99 37 229 -22 427 -22 c 256
EndSplineSet
EndChar

StartChar: section
Encoding: 167 167 420
Width: 1002
VWidth: 0
Flags: HW
PickledData: "(dp1
S'org.robofab.postScriptHintData'
p2
(dp3
s."
LayerCount: 2
Fore
SplineSet
804 487 m 257
 868 558 902 654 902 771 c 0
 902 867 858 919 726 973 c 258
 486 1071 l 258
 431 1094 410 1113 410 1153 c 0
 410 1162 411 1172 413 1184 c 256
 431 1283 469 1324 648 1324 c 256
 739 1324 866 1291 925 1266 c 257
 995 1410 l 257
 920 1441 790 1468 637 1468 c 256
 367 1468 263 1358 231 1178 c 256
 227 1156 225 1135 225 1116 c 0
 225 1067 239 1029 271 997 c 257
 209 946 179 880 163 792 c 256
 159 770 157 749 157 730 c 0
 157 636 207 583 332 536 c 258
 575 443 l 258
 645 416 665 386 665 340 c 0
 665 323 662 303 658 281 c 256
 642 192 582 122 410 122 c 256
 262 122 144 176 99 202 c 257
 28 64 l 257
 73 37 207 -22 411 -22 c 256
 670 -22 793 116 822 283 c 256
 829 321 833 354 833 383 c 0
 833 425 825 459 804 487 c 257
689 571 m 257
 418 683 l 258
 364 705 343 730 343 771 c 0
 343 820 383 924 400 924 c 257
 643 831 l 258
 713 804 733 774 733 729 c 0
 733 669 718 615 689 571 c 257
EndSplineSet
EndChar

StartChar: seven
Encoding: 55 55 422
Width: 1250
VWidth: 0
Flags: HW
PickledData: "(dp1
S'org.robofab.postScriptHintData'
p2
(dp3
s."
LayerCount: 2
Fore
SplineSet
242 0 m 257
 453 0 l 257
 1170 1289 l 257
 1197 1446 l 257
 316 1446 l 257
 289 1291 l 257
 969 1291 l 257
 242 0 l 257
EndSplineSet
EndChar

StartChar: six
Encoding: 54 54 423
Width: 1250
VWidth: 0
Flags: HW
PickledData: "(dp1
S'org.robofab.postScriptHintData'
p2
(dp3
s."
LayerCount: 2
Fore
SplineSet
518 -22 m 256
 794 -22 1025 104 1081 422 c 256
 1089 467 1093 508 1093 546 c 0
 1093 784 939 878 683 878 c 256
 623 878 545 860 499 841 c 257
 962 1446 l 257
 762 1446 l 257
 352 897 l 257
 228 728 153 568 128 426 c 256
 121 385 117 346 117 311 c 0
 117 75 278 -22 518 -22 c 256
549 140 m 256
 396 140 305 181 305 332 c 0
 305 359 308 390 314 425 c 256
 353 646 470 715 651 715 c 256
 803 715 903 681 903 519 c 0
 903 491 900 459 894 422 c 256
 854 197 729 140 549 140 c 256
EndSplineSet
EndChar

StartChar: slash
Encoding: 47 47 424
Width: 768
VWidth: 0
Flags: HW
PickledData: "(dp1
S'org.robofab.postScriptHintData'
p2
(dp3
s."
LayerCount: 2
Fore
SplineSet
-69 0 m 257
 118 0 l 257
 837 1506 l 257
 654 1506 l 257
 -69 0 l 257
EndSplineSet
EndChar

StartChar: softhyphen
Encoding: 173 173 426
Width: 1024
VWidth: 0
Flags: HW
AnchorPoint: "mid" 507 567 mark 0
LayerCount: 2
Fore
SplineSet
159 499 m 257
 819 499 l 257
 845 642 l 257
 185 642 l 257
 159 499 l 257
EndSplineSet
EndChar

StartChar: sterling
Encoding: 163 163 428
Width: 1273
VWidth: 0
Flags: HW
PickledData: "(dp1
S'org.robofab.postScriptHintData'
p2
(dp3
s."
LayerCount: 2
Fore
SplineSet
130 0 m 257
 905 0 l 257
 934 162 l 257
 360 162 l 257
 501 668 l 257
 999 668 l 257
 1024 809 l 257
 541 809 l 257
 623 1104 l 258
 671 1275 769 1327 873 1327 c 256
 974 1327 1079 1278 1114 1259 c 257
 1193 1398 l 257
 1077 1459 972 1484 879 1484 c 256
 645 1484 487 1319 435 1125 c 257
 348 809 l 257
 178 809 l 257
 153 668 l 257
 310 668 l 257
 130 0 l 257
EndSplineSet
EndChar

StartChar: summation
Encoding: 8721 8721 429
Width: 1123
VWidth: 0
Flags: HW
PickledData: "(dp1
S'org.robofab.postScriptHintData'
p2
(dp3
s."
LayerCount: 2
Fore
SplineSet
949 0 m 257
 977 162 l 257
 222 162 l 257
 780 738 l 257
 792 807 l 257
 416 1286 l 257
 1175 1286 l 257
 1203 1446 l 257
 239 1446 l 257
 213 1298 l 257
 604 762 l 257
 12 155 l 257
 -15 0 l 257
 949 0 l 257
EndSplineSet
EndChar

StartChar: t
Encoding: 116 116 430
Width: 832
VWidth: 0
Flags: HW
PickledData: "(dp1
S'org.robofab.postScriptHintData'
p2
(dp3
s."
AnchorPoint: "bot" 337 32 basechar 0
AnchorPoint: "top" 550 1280 basechar 0
AnchorPoint: "mid" 362 597 basechar 0
AnchorPoint: "caron.alt" 313 1060 basechar 0
LayerCount: 2
Fore
SplineSet
553 -8 m 258
 581 -8 l 257
 629 150 l 257
 608 150 l 258
 451 150 374 169 374 268 c 0
 374 282 376 298 379 315 c 258
 485 918 l 257
 751 918 l 257
 776 1060 l 257
 510 1060 l 257
 568 1388 l 257
 410 1388 l 257
 329 1060 l 257
 145 1060 l 257
 120 918 l 257
 297 918 l 257
 189 303 l 258
 184 273 181 245 181 220 c 0
 181 51 301 -8 553 -8 c 258
EndSplineSet
EndChar

StartChar: thorn
Encoding: 254 254 435
Width: 1194
VWidth: 0
Flags: HW
PickledData: "(dp1
S'org.robofab.postScriptHintData'
p2
(dp3
s."
LayerCount: 2
Fore
SplineSet
8 -408 m 257
 196 -408 l 257
 274 34 l 257
 321 8 395 -24 514 -24 c 256
 790 -24 970 131 1008 344 c 258
 1076 729 l 258
 1080 754 1083 778 1083 801 c 0
 1083 966 970 1076 732 1076 c 256
 623 1076 511 1039 443 994 c 257
 534 1506 l 257
 348 1506 l 257
 8 -408 l 257
527 117 m 256
 418 117 343 152 300 179 c 257
 413 824 l 257
 435 850 545 934 678 934 c 256
 803 934 893 881 893 777 c 0
 893 766 892 754 890 742 c 258
 816 324 l 258
 793 194 675 117 527 117 c 256
EndSplineSet
EndChar

StartChar: three
Encoding: 51 51 436
Width: 1250
VWidth: 0
Flags: HW
PickledData: "(dp1
S'org.robofab.postScriptHintData'
p2
(dp3
s."
LayerCount: 2
Fore
SplineSet
548 -22 m 256
 832 -22 1020 122 1069 398 c 256
 1077 442 1081 481 1081 516 c 0
 1081 673 1003 740 873 768 c 257
 1046 795 1128 901 1162 1091 c 256
 1167 1122 1170 1152 1170 1179 c 0
 1170 1380 1025 1468 806 1468 c 256
 549 1468 336 1393 271 1025 c 257
 463 1025 l 257
 507 1273 601 1306 779 1306 c 256
 923 1306 979 1248 979 1149 c 0
 979 1130 977 1110 973 1088 c 256
 944 924 917 840 608 840 c 257
 581 691 l 257
 819 691 891 647 891 518 c 0
 891 484 886 445 878 399 c 256
 848 230 760 140 587 140 c 256
 416 140 343 176 343 340 c 0
 343 367 345 397 349 431 c 257
 157 431 l 257
 154 396 153 363 153 333 c 0
 153 69 259 -22 548 -22 c 256
EndSplineSet
Substitution2: "supsSuperscriptlookup11 subtable" uni00B3
EndChar

StartChar: threequarters
Encoding: 190 190 437
Width: 2047
VWidth: 0
Flags: HW
PickledData: "(dp1
S'org.robofab.postScriptHintData'
p2
(dp3
s."
LayerCount: 2
Fore
SplineSet
744 958 m 0
 744 824 686 746 545 746 c 256
 423 746 361 767 361 879 c 0
 361 895 363 912 365 932 c 257
 230 932 l 257
 228 912 227 893 227 876 c 0
 227 707 317 653 522 653 c 256
 721 653 843 736 871 896 c 256
 875 918 877 938 877 956 c 0
 877 1053 821 1093 726 1110 c 257
 847 1126 903 1187 922 1297 c 256
 925 1313 926 1327 926 1341 c 0
 926 1462 822 1515 666 1515 c 257
 485 1515 344 1477 299 1253 c 257
 434 1253 l 257
 461 1408 525 1421 650 1421 c 256
 754 1421 793 1386 793 1326 c 0
 793 1316 792 1306 790 1295 c 256
 773 1200 754 1151 538 1151 c 257
 523 1066 l 257
 695 1066 744 1038 744 958 c 0
1521 0 m 257
 1634 0 l 257
 1671 207 l 257
 1815 207 l 257
 1831 298 l 257
 1687 298 l 257
 1728 533 l 257
 1615 533 l 257
 1574 298 l 257
 1292 298 l 257
 1745 892 l 257
 1604 892 l 257
 1140 299 l 257
 1124 207 l 257
 1558 207 l 257
 1521 0 l 257
553 0 m 257
 685 0 l 257
 1618 1446 l 257
 1492 1446 l 257
 553 0 l 257
EndSplineSet
Ligature2: "fracDiagonalFractionslookup12 subtable" three slash four
EndChar

StartChar: uni00B3
Encoding: 179 179 438
Width: 1050
VWidth: 0
Flags: HW
PickledData: "(dp1
S'org.robofab.postScriptHintData'
p2
(dp3
s."
LayerCount: 2
Fore
SplineSet
710 969 m 0
 710 842 621 774 500 774 c 256
 393 774 313 791 313 909 c 0
 313 927 315 948 319 971 c 257
 188 971 l 257
 184 942 181 915 181 891 c 0
 181 714 297 666 476 666 c 256
 659 666 802 748 833 925 c 256
 837 946 838 964 838 982 c 0
 838 1072 791 1122 694 1144 c 257
 817 1173 872 1249 889 1345 c 256
 892 1360 893 1374 893 1388 c 0
 893 1518 777 1584 639 1584 c 257
 461 1584 298 1532 255 1289 c 257
 384 1289 l 257
 409 1440 484 1475 617 1475 c 256
 725 1475 764 1425 764 1368 c 0
 764 1360 763 1351 762 1343 c 256
 747 1258 730 1194 490 1194 c 258
 484 1194 l 257
 466 1089 l 257
 473 1089 l 258
 654 1089 710 1055 710 969 c 0
EndSplineSet
EndChar

StartChar: tilde
Encoding: 732 732 439
Width: 512
VWidth: 0
Flags: HW
PickledData: "(dp1
S'org.robofab.postScriptHintData'
p2
(dp3
s."
AnchorPoint: "top" 209 1060 mark 0
LayerCount: 2
Fore
SplineSet
124 1203 m 256
 261 1203 311 1310 382 1310 c 256
 416 1310 439 1288 439 1245 c 0
 439 1236 438 1227 436 1217 c 257
 533 1217 l 257
 538 1246 541 1272 541 1295 c 0
 541 1403 486 1446 387 1446 c 256
 250 1446 200 1339 129 1339 c 256
 95 1339 72 1361 72 1404 c 0
 72 1413 73 1422 75 1432 c 257
 -22 1432 l 257
 -27 1403 -30 1377 -30 1354 c 0
 -30 1246 25 1203 124 1203 c 256
EndSplineSet
EndChar

StartChar: trademark
Encoding: 8482 8482 440
Width: 1843
VWidth: 0
Flags: HW
PickledData: "(dp1
S'org.robofab.postScriptHintData'
p2
(dp3
s."
LayerCount: 2
Fore
SplineSet
785 766 m 257
 910 766 l 257
 1009 1329 l 257
 1118 931 l 257
 1279 931 l 257
 1521 1329 l 257
 1422 766 l 257
 1549 766 l 257
 1669 1446 l 257
 1473 1446 l 257
 1214 1033 l 257
 1103 1446 l 257
 905 1446 l 257
 785 766 l 257
285 766 m 257
 420 766 l 257
 520 1332 l 257
 732 1332 l 257
 752 1446 l 257
 193 1446 l 257
 173 1332 l 257
 385 1332 l 257
 285 766 l 257
EndSplineSet
EndChar

StartChar: two
Encoding: 50 50 441
Width: 1250
VWidth: 0
Flags: HW
PickledData: "(dp1
S'org.robofab.postScriptHintData'
p2
(dp3
s."
LayerCount: 2
Fore
SplineSet
102 0 m 257
 958 0 l 257
 985 156 l 257
 339 156 l 257
 815 581 l 258
 988 735 1113 834 1152 1059 c 256
 1157 1089 1160 1118 1160 1146 c 0
 1160 1333 1039 1468 768 1468 c 256
 476 1468 271 1342 215 1024 c 257
 416 1024 l 257
 458 1259 544 1306 755 1306 c 256
 903 1306 970 1262 970 1141 c 0
 970 1116 968 1089 962 1057 c 256
 936 912 866 847 692 689 c 258
 110 158 l 257
 102 0 l 257
EndSplineSet
Substitution2: "supsSuperscriptlookup11 subtable" uni00B2
EndChar

StartChar: uni00B2
Encoding: 178 178 442
Width: 1050
VWidth: 0
Flags: HW
PickledData: "(dp1
S'org.robofab.postScriptHintData'
p2
(dp3
s."
LayerCount: 2
Fore
SplineSet
165 694 m 257
 745 694 l 257
 764 804 l 257
 346 804 l 257
 589 974 l 257
 735 1087 829 1165 856 1318 c 256
 859 1338 861 1356 861 1374 c 0
 861 1506 768 1584 604 1584 c 256
 416 1584 263 1498 225 1270 c 257
 368 1270 l 257
 397 1438 472 1479 593 1479 c 256
 679 1479 727 1443 727 1363 c 0
 727 1350 726 1335 723 1319 c 256
 704 1213 655 1165 527 1066 c 257
 174 808 l 257
 165 694 l 257
EndSplineSet
EndChar

StartChar: u
Encoding: 117 117 443
Width: 1222
VWidth: 0
Flags: HW
PickledData: "(dp1
S'org.robofab.postScriptHintData'
p2
(dp3
s."
AnchorPoint: "top" 717 1060 basechar 0
AnchorPoint: "ogonek" 865 0 basechar 0
LayerCount: 2
Fore
SplineSet
444 -22 m 256
 598 -22 709 38 780 133 c 257
 776 0 l 257
 944 0 l 257
 1131 1060 l 257
 943 1060 l 257
 811 309 l 258
 795 220 690 122 506 122 c 256
 388 122 318 172 318 258 c 0
 318 268 319 278 321 289 c 258
 457 1060 l 257
 269 1060 l 257
 134 290 l 258
 130 268 128 246 128 225 c 0
 128 86 217 -22 444 -22 c 256
EndSplineSet
EndChar

StartChar: underscore
Encoding: 95 95 455
Width: 929
VWidth: 0
Flags: HW
PickledData: "(dp1
S'org.robofab.postScriptHintData'
p2
(dp3
s."
LayerCount: 2
Fore
SplineSet
1 -104 m 257
 902 -104 l 257
 928 46 l 257
 27 46 l 257
 1 -104 l 257
EndSplineSet
EndChar

StartChar: uni0307
Encoding: 775 775 471
Width: 412
VWidth: 0
Flags: HW
PickledData: "(dp1
S'org.robofab.postScriptHintData'
p2
(dp3
s."
AnchorPoint: "top" 153 1060 mark 0
LayerCount: 2
Fore
SplineSet
93 1327 m 257
 286 1327 l 257
 322 1535 l 257
 129 1535 l 257
 93 1327 l 257
EndSplineSet
EndChar

StartChar: uni030F
Encoding: 783 783 472
Width: 1024
VWidth: 0
Flags: HW
PickledData: "(dp1
S'org.robofab.postScriptHintData'
p2
(dp3
s."
AnchorPoint: "top" 543 1060 mark 0
LayerCount: 2
Fore
SplineSet
714 1293 m 257
 842 1293 l 257
 772 1674 l 257
 547 1674 l 257
 714 1293 l 257
304 1293 m 257
 432 1293 l 257
 362 1674 l 257
 137 1674 l 257
 304 1293 l 257
EndSplineSet
EndChar

StartChar: uni0311
Encoding: 785 785 473
Width: 512
VWidth: 0
Flags: HW
PickledData: "(dp1
S'org.robofab.postScriptHintData'
p2
(dp3
s."
AnchorPoint: "top" 214 1060 mark 0
LayerCount: 2
Fore
SplineSet
11 1256 m 257
 137 1256 l 257
 148 1316 203 1346 253 1346 c 256
 298 1346 339 1322 339 1274 c 0
 339 1268 338 1262 337 1256 c 257
 463 1256 l 257
 465 1269 467 1283 467 1296 c 0
 467 1393 398 1468 275 1468 c 256
 136 1468 32 1371 11 1256 c 257
EndSplineSet
EndChar

StartChar: uni0358
Encoding: 856 856 476
Width: 600
VWidth: 0
Flags: HW
PickledData: "(dp1
S'org.robofab.postScriptHintData'
p2
(dp3
s."
AnchorPoint: "top" 223 1060 mark 0
LayerCount: 2
Fore
SplineSet
163 1327 m 257
 356 1327 l 257
 392 1535 l 257
 199 1535 l 257
 163 1327 l 257
EndSplineSet
EndChar

StartChar: v
Encoding: 118 118 481
Width: 1104
VWidth: 0
Flags: HW
PickledData: "(dp1
S'org.robofab.postScriptHintData'
p2
(dp3
s."
LayerCount: 2
Fore
SplineSet
382 0 m 257
 572 0 l 257
 1133 1060 l 257
 949 1060 l 257
 514 200 l 257
 346 1060 l 257
 157 1060 l 257
 382 0 l 257
EndSplineSet
EndChar

StartChar: w
Encoding: 119 119 482
Width: 1614
VWidth: 0
Flags: HW
PickledData: "(dp1
S'org.robofab.postScriptHintData'
p2
(dp3
s."
AnchorPoint: "top" 905 1060 basechar 0
LayerCount: 2
Fore
SplineSet
264 0 m 257
 442 0 l 257
 862 845 l 257
 984 0 l 257
 1159 0 l 257
 1655 1060 l 257
 1481 1060 l 257
 1108 228 l 257
 988 1060 l 257
 807 1060 l 257
 406 228 l 257
 317 1060 l 257
 145 1060 l 257
 264 0 l 257
EndSplineSet
EndChar

StartChar: x
Encoding: 120 120 487
Width: 1056
VWidth: 0
Flags: HW
PickledData: "(dp1
S'org.robofab.postScriptHintData'
p2
(dp3
s."
LayerCount: 2
Fore
SplineSet
-29 0 m 257
 158 0 l 257
 512 403 l 257
 724 0 l 257
 907 0 l 257
 627 535 l 257
 1088 1060 l 257
 907 1060 l 257
 559 666 l 257
 352 1060 l 257
 163 1060 l 257
 442 533 l 257
 -29 0 l 257
EndSplineSet
EndChar

StartChar: y
Encoding: 121 121 488
Width: 1118
VWidth: 0
Flags: HW
PickledData: "(dp1
S'org.robofab.postScriptHintData'
p2
(dp3
s."
AnchorPoint: "top" 714 1060 basechar 0
LayerCount: 2
Fore
SplineSet
69 -406 m 257
 381 -406 494 -280 662 45 c 258
 1189 1060 l 257
 999 1060 l 257
 579 216 l 257
 404 1060 l 257
 205 1060 l 257
 456 4 l 257
 370 -189 255 -259 95 -259 c 257
 69 -406 l 257
EndSplineSet
EndChar

StartChar: yen
Encoding: 165 165 492
Width: 1318
VWidth: 0
Flags: HW
PickledData: "(dp1
S'org.robofab.postScriptHintData'
p2
(dp3
s."
LayerCount: 2
Fore
SplineSet
1034 560 m 257
 1060 708 l 257
 257 708 l 257
 231 560 l 257
 1034 560 l 257
980 252 m 257
 1006 400 l 257
 203 400 l 257
 177 252 l 257
 980 252 l 257
EndSplineSet
Refer: 164 89 N 1 0 0 1 0 0 2
EndChar

StartChar: z
Encoding: 122 122 496
Width: 951
VWidth: 0
Flags: HW
PickledData: "(dp1
S'org.robofab.postScriptHintData'
p2
(dp3
s."
AnchorPoint: "top" 603 1060 basechar 0
AnchorPoint: "bot" 426 0 basechar 0
LayerCount: 2
Fore
SplineSet
43 0 m 257
 757 0 l 257
 780 132 l 257
 264 132 l 257
 912 935 l 257
 934 1060 l 257
 247 1060 l 257
 223 924 l 257
 706 924 l 257
 65 126 l 257
 43 0 l 257
EndSplineSet
EndChar

StartChar: zero
Encoding: 48 48 500
Width: 1250
VWidth: 0
Flags: HW
PickledData: "(dp1
S'org.robofab.postScriptHintData'
p2
(dp3
s."
LayerCount: 2
Fore
SplineSet
531 140 m 256
 340 140 288 240 288 382 c 0
 288 453 301 534 316 619 c 258
 350 816 l 257
 396 1073 453 1306 737 1306 c 256
 926 1306 978 1202 978 1057 c 0
 978 984 965 902 950 816 c 258
 916 619 l 258
 871 363 817 140 531 140 c 256
503 -22 m 256
 986 -22 1068 335 1121 636 c 258
 1148 790 l 258
 1165 885 1181 986 1181 1080 c 0
 1181 1291 1100 1468 765 1468 c 256
 280 1468 198 1096 144 790 c 258
 117 636 l 258
 101 545 86 448 86 358 c 0
 86 151 166 -22 503 -22 c 256
EndSplineSet
EndChar
